<svg width="635" height="518" viewBox="0 0 635 518" fill="none" xmlns="http://www.w3.org/2000/svg">
<path d="M398.659 270.285C448.417 220.527 448.417 139.853 398.659 90.0952C348.901 40.337 268.227 40.337 218.469 90.0951C168.711 139.853 168.711 220.527 218.469 270.285C268.227 320.043 348.901 320.043 398.659 270.285Z" fill="#FF5336"/>
<path d="M635 392.303L605.72 392.239L562.43 392.143L474.242 391.944C474.242 391.944 474.261 391.936 474.291 391.921L562.864 342.768L635 392.303Z" fill="#EDB188"/>
<path d="M635 392.303L605.72 392.239C597.067 375.722 571.754 366.388 564.703 361.788C555.904 356.04 562.864 342.768 562.864 342.768L635 392.303Z" fill="#EFBE97"/>
<path d="M562.43 392.145L474.242 391.946C474.242 391.946 474.261 391.938 474.291 391.922C475.439 391.404 497.315 381.679 514.129 385.274C529.013 388.454 554.614 386.317 562.43 392.145Z" fill="#E8A577"/>
<path d="M329.075 392.303L269.139 392.173L180.522 391.978L0 391.57C0 391.57 0.037037 391.554 0.0993318 391.522L181.409 290.907L329.075 392.303Z" fill="#EDB188"/>
<path d="M329.075 392.303L269.139 392.173C251.429 358.362 199.61 339.254 185.176 329.84C167.164 318.074 181.411 290.905 181.411 290.905L329.075 392.303Z" fill="#EFBE97"/>
<path d="M180.522 391.978L0 391.57C0 391.57 0.037037 391.554 0.0993318 391.522C2.45138 390.461 47.2279 370.553 81.6483 377.913C112.119 384.422 164.526 380.049 180.522 391.978Z" fill="#E8A577"/>
<path d="M555.546 392.303L513.845 392.212L452.19 392.076L326.59 391.791C326.59 391.791 326.617 391.779 326.659 391.757L452.806 321.755L555.546 392.303Z" fill="#EFBE97"/>
<path d="M555.545 392.303L513.845 392.212C501.522 368.688 465.469 355.394 455.428 348.843C442.896 340.657 452.808 321.755 452.808 321.755L555.545 392.303Z" fill="#F5CDA9"/>
<path d="M452.188 392.077L326.588 391.793C326.588 391.793 326.615 391.781 326.657 391.759C328.294 391.022 359.448 377.17 383.396 382.29C404.597 386.821 441.058 383.777 452.188 392.077Z" fill="#EDB188"/>
<path d="M540.771 288.799C532.096 289.023 525.29 296.374 525.29 305.053V392.554H557.093V304.695C557.093 295.773 549.745 288.569 540.771 288.799Z" fill="#D3573B"/>
<path d="M541.192 288.794C536.207 288.794 532.165 295.913 532.165 304.695V392.554H550.22V304.695C550.22 295.913 546.178 288.794 541.192 288.794Z" fill="#FF5336"/>
<path d="M541.192 288.794C539.323 288.794 537.808 295.913 537.808 304.695V392.554H544.576V304.695C544.576 295.913 543.061 288.794 541.192 288.794Z" fill="#FF5336"/>
<path d="M534.695 300.657L532.619 302.479L532.198 298.573H532.195L531.774 302.482L529.695 300.657L531.639 303.723H531.641L532.193 304.594V304.587L532.197 304.594L532.754 303.723V303.717L534.695 300.657Z" fill="#7D97F4"/>
<path d="M552.69 300.657L550.614 302.479L550.193 298.573H550.19L549.769 302.482L547.688 300.657L549.634 303.723H549.636L550.187 304.594V304.587L550.192 304.594L550.749 303.723L550.747 303.717L552.69 300.657Z" fill="#7D97F4"/>
<path d="M543.693 306.678L541.617 308.5L541.196 304.594H541.192L540.771 308.503L538.692 306.678L540.637 309.742L540.638 309.744L541.191 310.613V310.607L541.194 310.613L541.751 309.742L541.75 309.737L543.693 306.678Z" fill="#7D97F4"/>
<path d="M543.693 321.669L541.617 323.491L541.196 319.585H541.192L540.771 323.494L538.692 321.669L540.637 324.735L540.638 324.737L541.191 325.606V325.599L541.194 325.606L541.751 324.735L541.75 324.728L543.693 321.669Z" fill="#7D97F4"/>
<path d="M543.693 336.662L541.617 338.484L541.196 334.578H541.192L540.771 338.487L538.692 336.662L540.637 339.726L540.638 339.728L541.191 340.599V340.592L541.194 340.599L541.751 339.726L541.75 339.721L543.693 336.662Z" fill="#7D97F4"/>
<path d="M534.695 314.571L532.619 316.393L532.198 312.487H532.195L531.774 316.396L529.695 314.571L531.639 317.637H531.641L532.193 318.507V318.501L532.197 318.507L532.754 317.637V317.63L534.695 314.571Z" fill="#7D97F4"/>
<path d="M552.69 314.571L550.614 316.393L550.193 312.487H550.19L549.769 316.396L547.688 314.571L549.634 317.637H549.636L550.187 318.507V318.501L550.192 318.507L550.749 317.637L550.747 317.63L552.69 314.571Z" fill="#7D97F4"/>
<path d="M534.695 328.485L532.619 330.306L532.198 326.4H532.195L531.774 330.31L529.695 328.485L531.639 331.549L531.641 331.551L532.193 332.421V332.414L532.197 332.421L532.754 331.549V331.544L534.695 328.485Z" fill="#7D97F4"/>
<path d="M552.69 328.485L550.614 330.306L550.193 326.4H550.19L549.769 330.31L547.688 328.485L549.634 331.549L549.636 331.551L550.187 332.421V332.414L550.192 332.421L550.749 331.549L550.747 331.544L552.69 328.485Z" fill="#7D97F4"/>
<path d="M512.022 312.687V307.072C512.022 303.476 509.329 300.253 505.738 300.065C501.908 299.864 498.741 302.91 498.741 306.695V317.457V319.745C498.741 325.816 503.662 330.737 509.733 330.737H512.022H526.649V317.457H516.793C514.158 317.457 512.022 315.322 512.022 312.687Z" fill="#D3573B"/>
<path d="M509.734 326.111C506.216 326.111 503.368 323.26 503.368 319.745V306.695C503.368 305.585 504.272 304.681 505.383 304.681C506.528 304.738 507.397 305.831 507.397 307.07V317.197C507.397 319.895 509.584 322.082 512.281 322.082H525.292V326.109L509.734 326.111Z" fill="#F46640"/>
<path d="M512.316 324.156L510.24 325.978L509.819 322.072H509.814L509.393 325.981L507.314 324.156L509.26 327.22V327.222L509.813 328.092V328.086L509.818 328.092L510.373 327.22V327.215L512.316 324.156Z" fill="#F9A42D"/>
<path d="M505.868 314.571L503.792 316.393L503.371 312.487H503.368L502.947 316.396L500.867 314.571L502.812 317.637H502.814L503.366 318.507V318.501L503.369 318.507L503.927 317.637L503.925 317.63L505.868 314.571Z" fill="#F9A42D"/>
<path d="M509.814 306.038L507.74 307.86L507.319 303.954H507.314L506.893 307.863L504.814 306.038L506.76 309.104L507.313 309.974V309.968L507.318 309.974L507.873 309.104V309.097L509.814 306.038Z" fill="#F9A42D"/>
<path d="M521.984 324.156L519.908 325.978L519.487 322.072H519.483L519.061 325.981L516.983 324.156L518.928 327.22L518.929 327.222L519.48 328.092V328.086L519.485 328.092L520.042 327.22L520.041 327.215L521.984 324.156Z" fill="#F9A42D"/>
<path d="M571.72 340.26V334.645C571.72 331.049 574.412 327.826 578.003 327.639C581.834 327.439 585.001 330.485 585.001 334.269V345.031V347.319C585.001 353.391 580.079 358.312 574.008 358.312H571.72H557.093V345.031H566.949C569.583 345.03 571.72 342.895 571.72 340.26Z" fill="#D3573B"/>
<path d="M574.008 353.684C577.524 353.684 580.374 350.833 580.374 347.318V334.268C580.374 333.158 579.47 332.254 578.359 332.254C577.214 332.311 576.345 333.404 576.345 334.643V344.77C576.345 347.468 574.158 349.655 571.461 349.655H557.093V353.684H574.008Z" fill="#FF5336"/>
<path d="M571.427 351.729L573.501 353.551L573.922 349.645H573.927L574.348 353.554L576.428 351.729L574.481 354.795L573.929 355.665V355.659L573.924 355.665L573.368 354.795V354.788L571.427 351.729Z" fill="#F9A42D"/>
<path d="M577.874 342.144L579.95 343.966L580.371 340.06H580.374L580.795 343.969L582.876 342.144L580.93 345.21H580.928L580.377 346.08V346.074L580.372 346.08L579.815 345.21L579.817 345.203L577.874 342.144Z" fill="#F9A42D"/>
<path d="M573.927 333.611L576.003 335.433L576.424 331.527H576.427L576.848 335.436L578.928 333.611L576.981 336.677L576.429 337.547V337.541L576.426 337.547L575.869 336.677V336.672L573.927 333.611Z" fill="#F9A42D"/>
<path d="M561.758 351.729L563.834 353.551L564.255 349.645H564.26L564.681 353.554L566.76 351.729L564.814 354.795L564.261 355.665V355.659L564.256 355.665L563.701 354.795V354.788L561.758 351.729Z" fill="#F9A42D"/>
<path d="M534.695 344.339L532.619 346.161L532.198 342.255H532.195L531.774 346.164L529.695 344.339L531.639 347.405H531.641L532.193 348.276V348.269L532.197 348.276L532.754 347.405V347.398L534.695 344.339Z" fill="#7D97F4"/>
<path d="M552.69 344.339L550.614 346.161L550.193 342.255H550.19L549.769 346.164L547.688 344.339L549.634 347.405H549.636L550.187 348.276V348.269L550.192 348.276L550.749 347.405L550.747 347.398L552.69 344.339Z" fill="#7D97F4"/>
<path d="M543.693 350.36L541.617 352.181L541.196 348.275H541.192L540.771 352.185L538.692 350.36L540.637 353.424L540.638 353.426L541.191 354.296V354.289L541.194 354.296L541.751 353.424L541.75 353.419L543.693 350.36Z" fill="#7D97F4"/>
<path d="M543.693 365.351L541.617 367.175L541.196 363.267H541.192L540.771 367.176L538.692 365.351L540.637 368.417L540.638 368.419L541.191 369.288V369.281L541.194 369.288L541.751 368.417L541.75 368.412L543.693 365.351Z" fill="#7D97F4"/>
<path d="M543.693 380.344L541.617 382.166L541.196 378.26H541.192L540.771 382.169L538.692 380.344L540.637 383.408L540.638 383.41L541.191 384.281V384.274L541.194 384.281L541.751 383.408L541.75 383.403L543.693 380.344Z" fill="#7D97F4"/>
<path d="M534.695 358.253L532.619 360.074L532.198 356.168H532.195L531.774 360.078L529.695 358.253L531.639 361.319H531.641L532.193 362.189V362.182L532.197 362.189L532.754 361.319V361.312L534.695 358.253Z" fill="#7D97F4"/>
<path d="M552.69 358.253L550.614 360.074L550.193 356.168H550.19L549.769 360.078L547.688 358.253L549.634 361.319H549.636L550.187 362.189V362.182L550.192 362.189L550.749 361.319L550.747 361.312L552.69 358.253Z" fill="#7D97F4"/>
<path d="M534.695 372.167L532.619 373.988L532.198 370.082H532.195L531.774 373.992L529.695 372.167L531.639 375.233H531.641L532.193 376.103V376.096L532.197 376.103L532.754 375.233V375.226L534.695 372.167Z" fill="#7D97F4"/>
<path d="M552.69 372.167L550.614 373.988L550.193 370.082H550.19L549.769 373.992L547.688 372.167L549.634 375.233H549.636L550.187 376.103V376.096L550.192 376.103L550.749 375.233L550.747 375.226L552.69 372.167Z" fill="#7D97F4"/>
<path d="M542.601 283.393C542.601 283.393 542.913 278.376 541.192 275.078C539.472 278.376 539.783 283.393 539.783 283.393H542.601Z" fill="#3F1715"/>
<path d="M543.106 281.779C542.684 282.472 542.238 282.827 541.79 282.827H541.192H540.594C540.145 282.827 539.7 282.472 539.278 281.779L537.125 278.24L538.456 284.287C539.182 287.585 540.167 289.439 541.194 289.439C542.221 289.439 543.206 287.585 543.931 284.287L545.262 278.24L543.106 281.779Z" fill="#21120D"/>
<path d="M544.128 282.917C543.482 283.508 542.798 283.809 542.11 283.809H541.192H540.275C539.586 283.809 538.904 283.508 538.256 282.917L534.954 279.905L536.995 285.053C538.108 287.861 539.618 289.439 541.191 289.439C542.765 289.439 544.273 287.861 545.386 285.053L547.427 279.905L544.128 282.917Z" fill="#3F1715"/>
<path d="M545.494 284.013C544.546 284.504 543.544 284.755 542.536 284.755H541.192H539.849C538.84 284.755 537.838 284.504 536.891 284.013L532.053 281.506L535.042 285.789C536.673 288.126 538.884 289.439 541.191 289.439C543.497 289.439 545.71 288.126 547.339 285.789L550.329 281.506L545.494 284.013Z" fill="#21120D"/>
<path d="M505.711 297.548C505.711 297.548 505.908 294.357 504.816 292.259C503.721 294.355 503.918 297.548 503.918 297.548H505.711Z" fill="#3F1715"/>
<path d="M506.033 296.521C505.763 296.962 505.481 297.188 505.196 297.188H504.816H504.435C504.149 297.188 503.866 296.962 503.598 296.521L502.229 294.27L503.076 298.115C503.538 300.213 504.164 301.392 504.817 301.392C505.47 301.392 506.097 300.213 506.558 298.115L507.405 294.27L506.033 296.521Z" fill="#21120D"/>
<path d="M506.681 297.245C506.269 297.62 505.836 297.812 505.398 297.812H504.816H504.233C503.796 297.812 503.361 297.62 502.95 297.245L500.851 295.329L502.149 298.602C502.856 300.388 503.816 301.391 504.817 301.391C505.818 301.391 506.779 300.388 507.486 298.602L508.784 295.329L506.681 297.245Z" fill="#3F1715"/>
<path d="M507.55 297.942C506.947 298.255 506.311 298.415 505.669 298.415H504.814H503.96C503.319 298.415 502.682 298.255 502.08 297.942L499.004 296.347L500.905 299.071C501.942 300.558 503.347 301.391 504.814 301.391C506.28 301.391 507.686 300.556 508.723 299.071L510.624 296.347L507.55 297.942Z" fill="#21120D"/>
<path d="M579.463 323.738C579.463 323.738 579.719 319.605 578.302 316.889C576.884 319.605 577.14 323.738 577.14 323.738H579.463Z" fill="#3F1715"/>
<path d="M579.879 322.408C579.53 322.979 579.163 323.272 578.795 323.272H578.301H577.808C577.438 323.272 577.071 322.979 576.724 322.408L574.951 319.494L576.047 324.474C576.645 327.191 577.456 328.717 578.301 328.717C579.147 328.717 579.958 327.19 580.556 324.474L581.652 319.494L579.879 322.408Z" fill="#21120D"/>
<path d="M580.719 323.346C580.186 323.833 579.623 324.082 579.057 324.082H578.302H577.546C576.978 324.082 576.416 323.833 575.882 323.346L573.163 320.865L574.843 325.104C575.759 327.417 577.003 328.717 578.3 328.717C579.596 328.717 580.839 327.417 581.756 325.104L583.437 320.865L580.719 323.346Z" fill="#3F1715"/>
<path d="M581.844 324.248C581.063 324.653 580.239 324.86 579.408 324.86H578.302H577.195C576.365 324.86 575.54 324.653 574.759 324.248L570.776 322.184L573.237 325.713C574.581 327.638 576.402 328.719 578.302 328.719C580.201 328.719 582.022 327.638 583.366 325.713L585.827 322.184L581.844 324.248Z" fill="#21120D"/>
<path d="M363.994 232.707L314.658 218.633L308.567 251.347L326.072 261.209L331.447 287.626L331.597 329.708L337.763 363.319L315.089 359.445L314.311 367.574L310.488 398.873L315.089 404.661L361.378 382.486L378.302 327.186L381.731 290.402L363.994 232.707Z" fill="#191A23"/>
<path d="M286.457 287.625L291.774 329.708L296.327 360.864L311.833 368.221L317.559 400.456L274.909 376.722L253.474 327.186L253.267 290.402L268.801 235.414L310.378 221.429L314.225 249.875L304.206 261.426L286.457 287.625Z" fill="#191A23"/>
<path d="M212.26 330.885L237.906 328.321L244.029 362.686L218.066 358.213L223.165 399.189L182.825 393.103L179.684 359.827L112.74 357.625L113.466 335.852L137.635 299.753L156.225 259.108L178.875 220.992L179.921 222.065L221.61 220.464L226.992 275.196L212.26 330.885ZM137.31 328.823L180.216 328.336L173.237 274.138L177.059 272.067L179.162 281.119L137.31 328.823Z" fill="#191A23"/>
<path d="M240.064 325.422L235.235 353.382L175.165 358.925L110.338 364.075L108.716 334.256L130.858 295.426L151.097 255.692L181.039 219.541L177.345 273.22L143.738 328.686L192.304 334.705L240.064 325.422Z" fill="#191A23"/>
<path d="M494.515 330.885L520.16 328.321L526.284 362.686L500.319 358.213L505.418 399.189L465.078 393.103L461.937 359.827L394.993 357.625L395.719 335.852L419.887 299.753L438.478 259.108L461.128 220.992L462.174 222.065L503.863 220.464L509.245 275.196L494.515 330.885ZM419.564 328.823L462.47 328.336L455.492 274.138L459.313 272.067L461.416 281.119L419.564 328.823Z" fill="#191A23"/>
<path d="M522.319 325.422L517.488 353.382L457.418 358.925L392.592 364.075L390.971 334.256L413.111 295.426L433.35 255.692L463.292 219.541L459.598 273.22L425.992 328.686L474.559 334.705L522.319 325.422Z" fill="#191A23"/>
<path d="M89.7181 223.132C78.9461 223.41 70.4993 232.535 70.4993 243.31V411.971H109.981V242.866C109.981 231.791 100.859 222.846 89.7181 223.132Z" fill="#D3573B"/>
<path d="M90.24 223.125C84.0492 223.125 79.032 231.963 79.032 242.866V411.971H101.448V242.866C101.448 231.964 96.4291 223.125 90.24 223.125Z" fill="#F46640"/>
<path d="M90.24 223.125C87.9199 223.125 86.0393 231.963 86.0393 242.866V411.971H94.4424V242.866C94.4407 231.964 92.5601 223.125 90.24 223.125Z" fill="#F46640"/>
<path d="M82.1737 237.854L79.5977 240.115L79.0741 235.266H79.0707L78.5471 240.12L75.9661 237.854L78.3821 241.659V241.66L79.0673 242.74V242.731L79.0724 242.74L79.7644 241.659L79.7627 241.652L82.1737 237.854Z" fill="#F9A42D"/>
<path d="M104.514 237.854L101.936 240.115L101.414 235.266H101.409L100.887 240.12L98.3047 237.854L100.721 241.659L100.722 241.66L101.408 242.74V242.731L101.413 242.74L102.103 241.659V241.652L104.514 237.854Z" fill="#F9A42D"/>
<path d="M93.3445 245.327L90.7669 247.588L90.2449 242.74H90.2399L89.7163 247.593L87.1353 245.327L89.5513 249.132V249.134L90.2365 250.213V250.205L90.2416 250.213L90.9336 249.132V249.126L93.3445 245.327Z" fill="#F9A42D"/>
<path d="M93.3445 263.94L90.7669 266.201L90.2449 261.352H90.2399L89.7163 266.206L87.1353 263.94L89.5513 267.745V267.747L90.2365 268.826V268.817L90.2416 268.826L90.9336 267.745V267.738L93.3445 263.94Z" fill="#F9A42D"/>
<path d="M93.3445 282.553L90.7669 284.814L90.2449 279.965H90.2399L89.7163 284.819L87.1353 282.553L89.5513 286.358V286.36L90.2365 287.439V287.43L90.2416 287.439L90.9336 286.358V286.351L93.3445 282.553Z" fill="#F9A42D"/>
<path d="M82.1737 255.128L79.5977 257.389L79.0741 252.538H79.0707L78.5471 257.392L75.9661 255.128L78.3821 258.933V258.935L79.0673 260.014V260.005L79.0724 260.014L79.7644 258.933L79.7627 258.924L82.1737 255.128Z" fill="#F9A42D"/>
<path d="M104.514 255.128L101.936 257.389L101.414 252.538H101.409L100.887 257.392L98.3047 255.128L100.721 258.933L100.722 258.935L101.408 260.014V260.005L101.413 260.014L102.103 258.933V258.924L104.514 255.128Z" fill="#F9A42D"/>
<path d="M82.1737 272.4L79.5977 274.661L79.0741 269.812H79.0707L78.5471 274.666L75.9661 272.4L78.3821 276.205V276.207L79.0673 277.286V277.278L79.0724 277.286L79.7644 276.205L79.7627 276.199L82.1737 272.4Z" fill="#F9A42D"/>
<path d="M104.514 272.4L101.936 274.661L101.414 269.812H101.409L100.887 274.666L98.3047 272.4L100.721 276.205L100.722 276.207L101.408 277.286V277.278L101.413 277.286L102.103 276.205V276.199L104.514 272.4Z" fill="#F9A42D"/>
<path d="M54.0248 252.787V245.815C54.0248 241.352 50.6828 237.35 46.2245 237.118C41.4699 236.868 37.5369 240.65 37.5369 245.349V258.71V261.551C37.5369 269.088 43.6468 275.198 51.1845 275.198H54.0248H72.1846V258.712H59.9479C56.6765 258.709 54.0248 256.057 54.0248 252.787Z" fill="#D3573B"/>
<path d="M51.1845 269.454C46.8188 269.454 43.2798 265.915 43.2798 261.549V245.349C43.2798 243.972 44.4011 242.849 45.7817 242.849C47.2027 242.92 48.2819 244.277 48.2819 245.815V258.387C48.2819 261.736 50.9976 264.452 54.3464 264.452H70.4993V269.452L51.1845 269.454Z" fill="#F46640"/>
<path d="M54.3902 267.026L51.8125 269.289L51.2906 264.438H51.2856L50.7636 269.292L48.1809 267.026L50.5969 270.831L50.5986 270.833L51.2839 271.912V271.905L51.2889 271.912L51.9792 270.831V270.824L54.3902 267.026Z" fill="#F9A42D"/>
<path d="M46.386 255.128L43.8084 257.389L43.2864 252.538H43.2814L42.7578 257.392L40.1768 255.128L42.5928 258.933V258.935L43.278 260.014V260.005L43.2831 260.014L43.9751 258.933L43.9734 258.924L46.386 255.128Z" fill="#F9A42D"/>
<path d="M51.2855 244.534L48.7095 246.795L48.1859 241.947H48.1825L47.6589 246.799L45.0779 244.534L47.4922 248.339L47.4939 248.341L48.1792 249.42V249.412L48.1842 249.42L48.8762 248.339L48.8745 248.333L51.2855 244.534Z" fill="#F9A42D"/>
<path d="M66.3929 267.026L63.8152 269.289L63.2933 264.438H63.2882L62.7663 269.292L60.1836 267.026L62.5996 270.831V270.833L63.2849 271.912V271.905L63.2899 271.912L63.9819 270.831V270.824L66.3929 267.026Z" fill="#F9A42D"/>
<path d="M128.14 344.972V338C128.14 333.537 131.484 329.535 135.941 329.303C140.695 329.053 144.628 332.835 144.628 337.534V350.895V353.736C144.628 361.273 138.518 367.383 130.981 367.383H128.14H109.981V350.895H122.217C125.489 350.895 128.14 348.244 128.14 344.972Z" fill="#D3573B"/>
<path d="M130.981 361.639C135.346 361.639 138.886 358.1 138.886 353.734V337.534C138.886 336.157 137.764 335.034 136.384 335.034C134.963 335.104 133.883 336.461 133.883 338V350.572C133.883 353.921 131.168 356.637 127.819 356.637H109.981V361.637L130.981 361.639Z" fill="#F46640"/>
<path d="M127.775 359.211L130.353 361.474L130.875 356.623H130.88L131.402 361.477L133.984 359.211L131.568 363.018L130.883 364.097V364.09L130.878 364.097L130.186 363.018V363.009L127.775 359.211Z" fill="#F9A42D"/>
<path d="M135.781 347.313L138.357 349.574L138.879 344.725H138.884L139.407 349.577L141.988 347.313L139.572 351.118V351.119L138.887 352.199V352.19L138.882 352.199L138.19 351.118L138.192 351.111L135.781 347.313Z" fill="#F9A42D"/>
<path d="M130.88 336.719L133.458 338.98L133.979 334.131H133.985L134.506 338.985L137.087 336.719L134.673 340.524L134.671 340.526L133.986 341.605V341.597L133.981 341.605L133.291 340.524V340.517L130.88 336.719Z" fill="#F9A42D"/>
<path d="M115.772 359.211L118.35 361.474L118.872 356.623H118.877L119.401 361.477L121.982 359.211L119.566 363.018L118.88 364.097V364.09L118.875 364.097L118.183 363.018L118.185 363.009L115.772 359.211Z" fill="#F9A42D"/>
<path d="M82.1737 292.084L79.5977 294.346L79.0741 289.496H79.0707L78.5471 294.35L75.9661 292.084L78.3821 295.89V295.892L79.0673 296.971V296.963L79.0724 296.971L79.7644 295.89L79.7627 295.884L82.1737 292.084Z" fill="#F9A42D"/>
<path d="M104.514 292.084L101.936 294.346L101.414 289.496H101.409L100.887 294.35L98.3047 292.084L100.721 295.89L100.722 295.892L101.408 296.971V296.963L101.413 296.971L102.103 295.89V295.884L104.514 292.084Z" fill="#F9A42D"/>
<path d="M93.3445 299.559L90.7669 301.82L90.2449 296.971H90.2399L89.7163 301.823L87.1353 299.559L89.5513 303.364V303.366L90.2365 304.445V304.436L90.2416 304.445L90.9336 303.364V303.357L93.3445 299.559Z" fill="#F9A42D"/>
<path d="M93.3445 318.17L90.7669 320.433L90.2449 315.582H90.2399L89.7163 320.436L87.1353 318.17L89.5513 321.977L90.2365 323.057V323.049L90.2416 323.057L90.9336 321.977V321.97L93.3445 318.17Z" fill="#F9A42D"/>
<path d="M93.3445 336.783L90.7669 339.046L90.2449 334.195H90.2399L89.7163 339.049L87.1353 336.783L89.5513 340.588V340.59L90.2365 341.67V341.662L90.2416 341.67L90.9336 340.588V340.581L93.3445 336.783Z" fill="#F9A42D"/>
<path d="M82.1737 309.358L79.5977 311.619L79.0741 306.77H79.0707L78.5471 311.624L75.9661 309.358L78.3821 313.163V313.165L79.0673 314.244V314.235L79.0724 314.244L79.7644 313.163L79.7627 313.156L82.1737 309.358Z" fill="#F9A42D"/>
<path d="M104.514 309.358L101.936 311.619L101.414 306.77H101.409L100.887 311.624L98.3047 309.358L100.721 313.163L100.722 313.165L101.408 314.244V314.235L101.413 314.244L102.103 313.163V313.156L104.514 309.358Z" fill="#F9A42D"/>
<path d="M82.1737 326.632L79.5977 328.893L79.0741 324.044H79.0707L78.5471 328.897L75.9661 326.632L78.3821 330.437V330.439L79.0673 331.518V331.51L79.0724 331.518L79.7644 330.437L79.7627 330.43L82.1737 326.632Z" fill="#F9A42D"/>
<path d="M104.514 326.632L101.936 328.893L101.414 324.044H101.409L100.887 328.897L98.3047 326.632L100.721 330.437L100.722 330.439L101.408 331.518V331.51L101.413 331.518L102.103 330.437V330.43L104.514 326.632Z" fill="#F9A42D"/>
<path d="M82.1737 347.38L79.5977 349.641L79.0741 344.792H79.0707L78.5471 349.646L75.9661 347.38L78.3821 351.185V351.186L79.0673 352.266V352.257L79.0724 352.266L79.7644 351.185L79.7627 351.178L82.1737 347.38Z" fill="#F9A42D"/>
<path d="M104.514 347.38L101.936 349.641L101.414 344.792H101.409L100.887 349.646L98.3047 347.38L100.721 351.185L100.722 351.186L101.408 352.265V352.257L101.413 352.265L102.103 351.185V351.178L104.514 347.38Z" fill="#F9A42D"/>
<path d="M93.3445 354.853L90.7669 357.115L90.2449 352.266H90.2399L89.7163 357.12L87.1353 354.853L89.5513 358.658V358.66L90.2365 359.739V359.731L90.2416 359.739L90.9336 358.658V358.652L93.3445 354.853Z" fill="#F9A42D"/>
<path d="M93.3445 373.466L90.7669 375.727L90.2449 370.878H90.2399L89.7163 375.732L87.1353 373.466L89.5513 377.271V377.273L90.2365 378.352V378.343L90.2416 378.352L90.9336 377.271V377.264L93.3445 373.466Z" fill="#F9A42D"/>
<path d="M93.3445 392.079L90.7669 394.34L90.2449 389.491H90.2399L89.7163 394.345L87.1353 392.079L89.5513 395.884V395.885L90.2365 396.965V396.956L90.2416 396.965L90.9336 395.884V395.877L93.3445 392.079Z" fill="#F9A42D"/>
<path d="M82.1737 364.652L79.5977 366.915L79.0741 362.064H79.0707L78.5471 366.918L75.9661 364.652L78.3821 368.459V368.461L79.0673 369.54V369.531L79.0724 369.54L79.7644 368.459L79.7627 368.452L82.1737 364.652Z" fill="#F9A42D"/>
<path d="M104.514 364.652L101.936 366.915L101.414 362.064H101.409L100.887 366.918L98.3047 364.652L100.721 368.459L100.722 368.461L101.408 369.54V369.531L101.413 369.54L102.103 368.459V368.452L104.514 364.652Z" fill="#F9A42D"/>
<path d="M82.1737 381.926L79.5977 384.187L79.0741 379.339H79.0707L78.5471 384.193L75.9661 381.926L78.3821 385.731V385.733L79.0673 386.812V386.804L79.0724 386.812L79.7644 385.731L79.7627 385.725L82.1737 381.926Z" fill="#F9A42D"/>
<path d="M104.514 381.926L101.936 384.187L101.414 379.339H101.409L100.887 384.193L98.3047 381.926L100.721 385.731L100.722 385.733L101.408 386.812V386.804L101.413 386.812L102.103 385.731V385.725L104.514 381.926Z" fill="#F9A42D"/>
<path d="M91.9908 216.421C91.9908 216.421 92.3763 210.191 90.2398 206.097C88.1032 210.191 88.4888 216.421 88.4888 216.421H91.9908Z" fill="#3F1715"/>
<path d="M92.6172 214.416C92.0936 215.278 91.5397 215.717 90.9824 215.717H90.2399H89.4974C88.9401 215.717 88.3862 215.276 87.8626 214.416L85.189 210.023L86.8406 217.53C87.7414 221.625 88.9654 223.927 90.2399 223.927C91.5144 223.927 92.7368 221.625 93.6392 217.53L95.2925 210.023L92.6172 214.416Z" fill="#21120D"/>
<path d="M93.885 215.83C93.0819 216.564 92.2334 216.938 91.3781 216.938H90.2399H89.1018C88.2465 216.938 87.3996 216.562 86.5965 215.83L82.4985 212.089L85.0307 218.48C86.413 221.967 88.2869 223.925 90.2399 223.925C92.193 223.925 94.0685 221.965 95.4491 218.48L97.9813 212.089L93.885 215.83Z" fill="#3F1715"/>
<path d="M95.5804 217.189C94.4036 217.8 93.161 218.111 91.9084 218.111H90.2399H88.5714C87.3188 218.111 86.0763 217.8 84.8994 217.189L78.8955 214.077L82.6063 219.396C84.6317 222.297 87.376 223.926 90.2399 223.926C93.1038 223.926 95.8498 222.297 97.8736 219.396L101.584 214.077L95.5804 217.189Z" fill="#21120D"/>
<path d="M46.1909 233.993C46.1909 233.993 46.4367 230.031 45.078 227.428C43.7193 230.031 43.9651 233.993 43.9651 233.993H46.1909Z" fill="#3F1715"/>
<path d="M46.5898 232.718C46.2564 233.265 45.9045 233.547 45.5509 233.547H45.0778H44.6047C44.2495 233.547 43.8976 233.267 43.5642 232.718L41.8638 229.925L42.9144 234.698C43.4868 237.303 44.2646 238.766 45.0762 238.766C45.8877 238.766 46.6638 237.303 47.238 234.698L48.2885 229.925L46.5898 232.718Z" fill="#21120D"/>
<path d="M47.3947 233.617C46.8829 234.084 46.3441 234.323 45.8003 234.323H45.0763H44.3523C43.8085 234.323 43.2698 234.084 42.7596 233.617L40.1533 231.238L41.7646 235.303C42.6434 237.52 43.8355 238.766 45.078 238.766C46.3205 238.766 47.5125 237.52 48.3914 235.303L50.0027 231.238L47.3947 233.617Z" fill="#3F1715"/>
<path d="M48.4738 234.481C47.7246 234.868 46.935 235.067 46.1386 235.067H45.0779H44.0172C43.2209 235.067 42.4312 234.868 41.682 234.481L37.8635 232.503L40.224 235.883C41.512 237.729 43.2579 238.764 45.0779 238.764C46.898 238.764 48.6439 237.727 49.9319 235.883L52.2924 232.503L48.4738 234.481Z" fill="#21120D"/>
<path d="M137.753 324.46C137.753 324.46 138.071 319.328 136.311 315.958C134.552 319.33 134.87 324.46 134.87 324.46H137.753Z" fill="#3F1715"/>
<path d="M138.269 322.81C137.838 323.519 137.382 323.883 136.923 323.883H136.31H135.699C135.239 323.883 134.784 323.521 134.352 322.81L132.149 319.192L133.51 325.374C134.252 328.747 135.259 330.642 136.31 330.642C137.36 330.642 138.367 328.748 139.11 325.374L140.47 319.192L138.269 322.81Z" fill="#21120D"/>
<path d="M139.313 323.973C138.652 324.578 137.953 324.886 137.249 324.886H136.311H135.373C134.67 324.886 133.971 324.576 133.309 323.973L129.934 320.892L132.02 326.157C133.158 329.029 134.702 330.642 136.31 330.642C137.919 330.642 139.463 329.029 140.601 326.157L142.687 320.892L139.313 323.973Z" fill="#3F1715"/>
<path d="M140.709 325.093C139.739 325.597 138.716 325.853 137.685 325.853H136.311H134.937C133.905 325.853 132.883 325.595 131.914 325.093L126.969 322.531L130.026 326.912C131.693 329.301 133.956 330.643 136.313 330.643C138.672 330.643 140.933 329.301 142.6 326.912L145.656 322.531L140.709 325.093Z" fill="#21120D"/>
<path d="M613.352 389.492C612.21 389.492 592.874 419.066 590.904 421.887C581.006 436.069 561.267 438.288 546.115 446.627C534.571 452.981 525.521 463.145 518.354 474.202C508.89 488.802 501.166 506.344 485.321 513.535C472.614 519.301 457.574 516.741 444.718 511.319C423.28 502.28 407.644 491.664 384.043 488.627C361.453 485.719 338.032 488.819 317.108 497.867C296.173 506.92 274.576 521.983 252.732 515.48C225.063 507.23 213.801 468.267 185.282 463.864C164.735 460.682 146.196 477.552 125.464 479.066C105.287 480.549 86.856 467.169 73.9879 451.567C61.1181 435.963 51.7419 417.579 37.8063 402.918C32.7537 397.619 27.3627 393.262 21.6467 389.492C21.6434 389.492 610.747 389.492 613.352 389.492Z" fill="#FF5336"/>
<path d="M613.357 389.491C612.215 389.491 592.872 419.062 590.9 421.894C581.011 436.067 561.273 438.293 546.114 446.634C534.576 452.988 525.516 463.145 518.361 474.205C508.893 488.801 501.172 506.341 485.324 513.54C472.616 519.302 457.584 516.737 444.721 511.314C423.278 502.283 407.641 491.661 384.043 488.632C361.458 485.716 338.03 488.816 317.11 497.874C296.173 506.918 274.577 521.994 252.74 515.485C225.071 507.228 213.799 468.275 185.285 463.864C164.745 460.68 146.204 477.559 125.465 479.066C105.29 480.546 86.8627 467.176 73.9862 451.565C61.1232 435.97 51.7402 417.584 37.8081 402.918C32.7504 397.621 27.3678 393.267 21.6484 389.493C21.6484 389.493 37.5404 389.493 64.11 389.493C67.2516 394.015 70.4926 398.466 73.9862 402.708C86.8627 418.303 105.29 431.686 125.465 430.208C146.203 428.686 164.743 411.823 185.285 414.993C213.799 419.403 225.071 458.371 252.74 466.614C274.577 473.123 296.175 458.062 317.11 449.003C338.03 439.958 361.46 436.859 384.043 439.761C407.641 442.804 423.278 453.412 444.721 462.457C457.584 467.88 472.616 470.43 485.324 464.669C501.174 457.483 508.893 439.943 518.361 425.334C525.518 414.274 534.576 404.117 546.114 397.763C552.214 394.411 559.032 392.057 565.683 389.493L613.357 389.491Z" fill="#FE8983"/>
<path d="M326.351 122.265H447.511C447.05 110.575 437.434 101.253 425.637 101.253H425.632C420.786 90.3111 409.846 82.6724 397.111 82.6724C381.805 82.6724 369.085 93.7036 366.442 108.244C365.891 108.183 365.332 108.144 364.763 108.144C359.828 108.144 355.449 110.533 352.717 114.212C351.781 113.981 350.802 113.855 349.796 113.855C346.225 113.855 343.022 115.394 340.797 117.84C339.31 117.064 337.616 116.621 335.825 116.621C331.732 116.621 328.171 118.903 326.351 122.265Z" fill="#F3F3F3"/>
<path d="M473.838 123.967H311.274C310.674 123.967 310.188 123.481 310.188 122.881C310.188 122.282 310.674 121.795 311.274 121.795H473.838C474.437 121.795 474.924 122.282 474.924 122.881C474.926 123.481 474.439 123.967 473.838 123.967Z" fill="#F3F3F3"/>
<path d="M353.946 130.082H294.34C293.74 130.082 293.254 129.595 293.254 128.996C293.254 128.396 293.74 127.91 294.34 127.91H353.946C354.545 127.91 355.032 128.396 355.032 128.996C355.032 129.597 354.547 130.082 353.946 130.082Z" fill="#F3F3F3"/>
<path d="M423.687 130.082H390.952C390.353 130.082 389.866 129.595 389.866 128.996C389.866 128.396 390.353 127.91 390.952 127.91H423.687C424.287 127.91 424.773 128.396 424.773 128.996C424.773 129.597 424.287 130.082 423.687 130.082Z" fill="#F3F3F3"/>
<path d="M267.834 184.363H165.753C166.142 174.513 174.242 166.659 184.182 166.659H184.185C188.268 157.441 197.486 151.005 208.214 151.005C221.111 151.005 231.828 160.298 234.055 172.549C234.518 172.496 234.991 172.466 235.469 172.466C239.626 172.466 243.317 174.48 245.62 177.579C246.408 177.386 247.233 177.278 248.081 177.278C251.09 177.278 253.789 178.574 255.663 180.635C256.916 179.982 258.342 179.608 259.852 179.608C263.302 179.606 266.302 181.529 267.834 184.363Z" fill="#F3F3F3"/>
<path d="M143.573 185.797H280.537C281.042 185.797 281.453 185.388 281.453 184.881C281.453 184.376 281.044 183.965 280.537 183.965H143.573C143.068 183.965 142.657 184.374 142.657 184.881C142.657 185.388 143.068 185.797 143.573 185.797Z" fill="#F3F3F3"/>
<path d="M244.585 190.949H294.804C295.309 190.949 295.72 190.54 295.72 190.033C295.72 189.528 295.311 189.117 294.804 189.117H244.585C244.08 189.117 243.669 189.526 243.669 190.033C243.67 190.54 244.08 190.949 244.585 190.949Z" fill="#F3F3F3"/>
<path d="M185.825 190.949H213.405C213.91 190.949 214.321 190.54 214.321 190.033C214.321 189.528 213.912 189.117 213.405 189.117H185.825C185.32 189.117 184.909 189.526 184.909 190.033C184.911 190.54 185.32 190.949 185.825 190.949Z" fill="#F3F3F3"/>
</svg>
