<svg width="174" height="99" viewBox="0 0 174 99" fill="none" xmlns="http://www.w3.org/2000/svg">
<path d="M89.3261 75.9648H1.82166V96.3584H89.3261V75.9648Z" fill="url(#paint0_linear_24_224)"/>
<path d="M90.3442 95.0532H0.783337C0.350692 95.0532 0 94.7025 0 94.2698V87.2221H90.8676V94.5299C90.8675 94.8189 90.6332 95.0532 90.3442 95.0532Z" fill="url(#paint1_linear_24_224)"/>
<path d="M90.0909 86.1616H0.969018C0.433859 86.1616 0 85.7277 0 85.1926V78.3305H90.8676V85.385C90.8675 85.8139 90.5198 86.1616 90.0909 86.1616Z" fill="url(#paint2_linear_24_224)"/>
<path d="M90.8675 78.3305H0V76.194C0 75.7521 0.358289 75.3938 0.800253 75.3938H90.0572C90.5047 75.3938 90.8676 75.7566 90.8676 76.2042L90.8675 78.3305Z" fill="url(#paint3_linear_24_224)"/>
<path d="M170.733 85.1008C173.677 86.5326 174.715 90.4662 173.052 93.8868C171.389 97.3075 167.653 98.9198 164.709 97.488C161.765 96.0563 160.726 92.1226 162.39 88.702C164.053 85.2813 167.788 83.6691 170.733 85.1008Z" fill="url(#paint4_linear_24_224)"/>
<path d="M165.887 86.7747L163.033 92.6426C162.88 92.9572 162.501 93.0882 162.187 92.9352L158.746 91.262C158.431 91.109 158.3 90.73 158.453 90.4154L161.307 84.5475C161.46 84.2329 161.839 84.1019 162.153 84.2549L165.594 85.9281C165.909 86.081 166.04 86.4602 165.887 86.7747Z" fill="url(#paint5_linear_24_224)"/>
<path d="M162.102 83.6167C161.561 86.3929 160.329 88.8728 158.455 91.0776C157.442 92.269 155.818 92.8024 154.202 92.478C138.755 89.3764 106.382 69.3678 74.943 51.8885C72.8595 50.73 71.4194 49.4159 72.4013 47.3968L74.5695 42.9382C75.5453 40.9316 77.8804 42.0612 80.0717 42.9615C113.327 56.6244 148.599 68.534 160.708 79.5536C161.87 80.6112 162.388 82.1517 162.102 83.6167Z" fill="url(#paint6_linear_24_224)"/>
<path d="M79.5342 38.5407L72.3285 53.3589C72.1817 53.6607 71.8179 53.7865 71.5161 53.6397L67.9523 51.9066C67.6504 51.7599 67.5247 51.3961 67.6715 51.0942L74.8772 36.2761C75.024 35.9742 75.3878 35.8485 75.6897 35.9953L79.2534 37.7283C79.5553 37.8752 79.681 38.2389 79.5342 38.5407Z" fill="url(#paint7_linear_24_224)"/>
<path d="M46.8149 23.4297L39.6092 38.2479C39.4624 38.5497 39.0986 38.6755 38.7968 38.5287L35.233 36.7957C34.9311 36.6489 34.8054 36.2851 34.9522 35.9833L42.158 21.1651C42.3047 20.8633 42.6685 20.7375 42.9704 20.8843L46.5341 22.6173C46.836 22.7641 46.9617 23.1279 46.8149 23.4297Z" fill="url(#paint8_linear_24_224)"/>
<path d="M82.8417 23.5983L59.5825 71.4292L27.1777 55.6713L50.437 7.84044L82.8417 23.5983Z" fill="url(#paint9_linear_24_224)"/>
<path d="M60.8091 68.9066L57.8841 74.9218L25.4793 59.1641L28.4044 53.1489L60.8091 68.9066Z" fill="url(#paint10_linear_24_224)"/>
<path d="M59.2051 72.2053L57.7513 75.1948C57.3068 76.1088 56.2658 76.5674 55.2914 76.278C45.19 73.2781 35.4135 68.6035 26.0073 62.0208C25.1836 61.4444 24.9009 60.3535 25.3405 59.4494L26.8003 56.4474L59.2051 72.2053Z" fill="url(#paint11_linear_24_224)"/>
<path d="M62.4297 67.7943L61.3124 70.0919C61.1779 70.3684 60.8449 70.4834 60.5684 70.349L26.8362 53.9457C26.5597 53.8113 26.4446 53.4782 26.5791 53.2017L27.6964 50.9041C27.8308 50.6276 28.1639 50.5126 28.4403 50.647L62.1726 67.0503C62.4489 67.1849 62.5641 67.5178 62.4297 67.7943Z" fill="url(#paint12_linear_24_224)"/>
<path d="M62.2818 68.0984L61.4602 69.7878C61.3614 69.991 61.1165 70.0757 60.9132 69.9769L26.9161 53.4447C26.7129 53.3458 26.6282 53.101 26.727 52.8977L27.5486 51.2082C27.6474 51.005 27.8923 50.9203 28.0956 51.0192L62.0927 67.5514C62.2959 67.6504 62.3806 67.8952 62.2818 68.0984Z" fill="url(#paint13_linear_24_224)"/>
<path d="M83.0304 23.2102L85.9555 17.1949L53.5508 1.43716L50.6257 7.45235L83.0304 23.2102Z" fill="url(#paint14_linear_24_224)"/>
<path d="M84.6345 19.9116L86.0882 16.9221C86.5327 16.008 86.2505 14.906 85.4212 14.3183C76.8239 8.22538 67.1099 3.42221 56.1237 0.0883744C55.1618 -0.203568 54.1292 0.247722 53.6895 1.15181L52.2297 4.15379L84.6345 19.9116Z" fill="url(#paint15_linear_24_224)"/>
<path d="M83.1562 25.1718L84.2735 22.8741C84.408 22.5977 84.2928 22.2646 84.0165 22.1302L50.2842 5.72686C50.0078 5.59244 49.6747 5.70752 49.5403 5.98396L48.4229 8.2816C48.2885 8.55805 48.4036 8.89111 48.68 9.02554L82.4123 25.4289C82.6887 25.5633 83.0218 25.4482 83.1562 25.1718Z" fill="url(#paint16_linear_24_224)"/>
<path d="M83.3042 24.8677L84.1257 23.1782C84.2246 22.9749 84.1399 22.7301 83.9367 22.6312L49.9395 6.09904C49.7363 6.00017 49.4914 6.08485 49.3925 6.28805L48.571 7.97751C48.4721 8.18071 48.5568 8.42564 48.76 8.52451L82.7571 25.0567C82.9604 25.1556 83.2053 25.0709 83.3042 24.8677Z" fill="url(#paint17_linear_24_224)"/>
<defs>
<linearGradient id="paint0_linear_24_224" x1="55.1081" y1="73.0521" x2="-0.872328" y2="150.025" gradientUnits="userSpaceOnUse">
<stop stop-color="#09005D"/>
<stop offset="1" stop-color="#1A0F91"/>
</linearGradient>
<linearGradient id="paint1_linear_24_224" x1="95.9113" y1="21.8407" x2="18.0911" y2="128.403" gradientUnits="userSpaceOnUse">
<stop stop-color="#4F52FF"/>
<stop offset="1" stop-color="#4042E2"/>
</linearGradient>
<linearGradient id="paint2_linear_24_224" x1="90.4112" y1="20.395" x2="12.5579" y2="127.002" gradientUnits="userSpaceOnUse">
<stop stop-color="#4F52FF"/>
<stop offset="1" stop-color="#4042E2"/>
</linearGradient>
<linearGradient id="paint3_linear_24_224" x1="43.8145" y1="44.4677" x2="46.5173" y2="99.2001" gradientUnits="userSpaceOnUse">
<stop stop-color="#09005D"/>
<stop offset="1" stop-color="#1A0F91"/>
</linearGradient>
<linearGradient id="paint4_linear_24_224" x1="88.8255" y1="111.33" x2="207.078" y2="81.2995" gradientUnits="userSpaceOnUse">
<stop stop-color="#4F52FF"/>
<stop offset="1" stop-color="#4042E2"/>
</linearGradient>
<linearGradient id="paint5_linear_24_224" x1="162.541" y1="84.8836" x2="158.701" y2="123.252" gradientUnits="userSpaceOnUse">
<stop stop-color="#09005D"/>
<stop offset="1" stop-color="#1A0F91"/>
</linearGradient>
<linearGradient id="paint6_linear_24_224" x1="72.5265" y1="43.4216" x2="159.652" y2="87.318" gradientUnits="userSpaceOnUse">
<stop stop-color="#4F52FF"/>
<stop offset="1" stop-color="#4042E2"/>
</linearGradient>
<linearGradient id="paint7_linear_24_224" x1="73.4544" y1="45.5258" x2="62.7002" y2="96.8209" gradientUnits="userSpaceOnUse">
<stop stop-color="#09005D"/>
<stop offset="1" stop-color="#1A0F91"/>
</linearGradient>
<linearGradient id="paint8_linear_24_224" x1="40.9076" y1="24.7013" x2="40.7912" y2="48.911" gradientUnits="userSpaceOnUse">
<stop stop-color="#09005D"/>
<stop offset="1" stop-color="#1A0F91"/>
</linearGradient>
<linearGradient id="paint9_linear_24_224" x1="41.9665" y1="23.8617" x2="70.6743" y2="58.5781" gradientUnits="userSpaceOnUse">
<stop stop-color="#4F52FF"/>
<stop offset="1" stop-color="#4042E2"/>
</linearGradient>
<linearGradient id="paint10_linear_24_224" x1="47.8029" y1="46.9008" x2="41.2379" y2="71.0466" gradientUnits="userSpaceOnUse">
<stop stop-color="#4F52FF"/>
<stop offset="1" stop-color="#4042E2"/>
</linearGradient>
<linearGradient id="paint11_linear_24_224" x1="95.3863" y1="167.317" x2="62.3406" y2="104.731" gradientUnits="userSpaceOnUse">
<stop stop-color="#09005D"/>
<stop offset="1" stop-color="#1A0F91"/>
</linearGradient>
<linearGradient id="paint12_linear_24_224" x1="86.3867" y1="47.9334" x2="76.8772" y2="50.7863" gradientUnits="userSpaceOnUse">
<stop stop-color="#4F52FF"/>
<stop offset="1" stop-color="#4042E2"/>
</linearGradient>
<linearGradient id="paint13_linear_24_224" x1="44.4209" y1="53.2322" x2="43.9031" y2="8.18105" gradientUnits="userSpaceOnUse">
<stop stop-color="#4F52FF"/>
<stop offset="1" stop-color="#4042E2"/>
</linearGradient>
<linearGradient id="paint14_linear_24_224" x1="74.7832" y1="1.13434" x2="64.3237" y2="19.1602" gradientUnits="userSpaceOnUse">
<stop stop-color="#4F52FF"/>
<stop offset="1" stop-color="#4042E2"/>
</linearGradient>
<linearGradient id="paint15_linear_24_224" x1="101.907" y1="-156.563" x2="83.3817" y2="-61.9322" gradientUnits="userSpaceOnUse">
<stop stop-color="#09005D"/>
<stop offset="1" stop-color="#1A0F91"/>
</linearGradient>
<linearGradient id="paint16_linear_24_224" x1="103.959" y1="8.49524" x2="90.6948" y2="10.9931" gradientUnits="userSpaceOnUse">
<stop stop-color="#4F52FF"/>
<stop offset="1" stop-color="#4042E2"/>
</linearGradient>
<linearGradient id="paint17_linear_24_224" x1="74.8585" y1="1.0705" x2="100.363" y2="-42.4073" gradientUnits="userSpaceOnUse">
<stop stop-color="#4F52FF"/>
<stop offset="1" stop-color="#4042E2"/>
</linearGradient>
</defs>
</svg>
