<svg width="532" height="536" viewBox="0 0 532 536" fill="none" xmlns="http://www.w3.org/2000/svg">
<path d="M509.627 361.854C456.117 486.768 314.871 540.422 204.202 531.274C173.985 528.776 113.187 523.751 65.7159 478.915C-25.4494 392.811 -11.409 212.829 75.8622 106.865C87.1009 93.2195 164.894 1.79324 286.119 3.01706C374.874 3.91306 437.17 53.9868 444.745 60.225C454.314 68.1055 475.42 86.8323 494.442 116.541C539.136 186.346 543.064 283.794 509.627 361.854Z" fill="url(#paint0_linear_9_59)"/>
<path d="M62.7507 3.18499C54.3997 48.4204 16.3646 313.685 254.539 394.721C254.539 394.721 323.751 226.648 69.0177 0.956555C66.7894 -1.01791 63.2962 0.22961 62.7507 3.18499Z" fill="#BDD0FB"/>
<path opacity="0.43" d="M82.6275 44.7631C85.7148 59.138 89.0901 73.4302 92.5874 87.698C96.0912 101.962 99.7568 116.186 103.585 130.365C111.241 158.722 119.521 186.911 128.651 214.825C137.8 242.728 147.753 270.383 159.177 297.44C164.847 310.985 171.001 324.329 177.653 337.423C184.323 350.504 191.512 363.344 199.691 375.569C200.174 376.292 201.141 376.478 201.851 375.987C202.561 375.495 202.745 374.51 202.261 373.788L202.257 373.781L202.253 373.776C194.109 361.737 186.906 349.031 180.211 336.065C173.533 323.084 167.338 309.832 161.62 296.363C150.098 269.462 140.024 241.916 130.749 214.108C121.493 186.288 113.079 158.174 105.286 129.885C101.389 115.74 97.6549 101.548 94.0817 87.3138C90.5156 73.0801 87.068 58.8061 83.9149 44.4798L83.9137 44.4738C83.8342 44.1125 83.4819 43.8852 83.1271 43.9662C82.7732 44.0465 82.5504 44.403 82.6275 44.7631Z" fill="white"/>
<path d="M145.008 409.711C145.008 409.711 150.848 373.744 121.443 330.842C94.1608 291.036 26.2037 198.058 15.1701 151.468C14.6814 149.404 11.7433 149.447 11.3384 151.529C6.99438 173.862 0.510384 230.651 28.9183 293.517C65.5516 374.586 145.008 409.711 145.008 409.711Z" fill="#91B3FA"/>
<path opacity="0.45" d="M20.8559 193.925C20.592 198.951 20.9548 203.995 21.5944 208.986C21.671 209.611 21.7353 210.237 21.8218 210.861L22.1187 212.726L22.7151 216.457L23.4667 220.161C23.7286 221.393 23.9389 222.638 24.2762 223.853C26.6434 233.648 29.8096 243.265 33.8025 252.529C34.706 254.887 35.8529 257.135 36.9131 259.424L38.5271 262.846C38.8038 263.412 39.0481 263.995 39.3516 264.548L40.2404 266.217L43.7972 272.896C44.3656 274.024 45.0501 275.084 45.6922 276.169L47.6421 279.411L49.5923 282.653L50.5725 284.271L51.6257 285.841L55.8392 292.124C56.5493 293.165 57.2271 294.232 57.9637 295.251L60.1686 298.311L64.5787 304.43L69.0573 310.498C70.5565 312.517 72.0362 314.55 73.5645 316.546C76.5935 320.559 79.6461 324.554 82.7427 328.514C85.8141 332.495 88.9485 336.424 92.0622 340.369L101.522 352.105C107.835 359.919 114.16 367.719 120.213 375.712C121.754 377.691 123.193 379.74 124.669 381.766C125.419 382.77 126.098 383.821 126.802 384.856C127.495 385.898 128.217 386.922 128.886 387.979C130.178 390.118 131.553 392.216 132.692 394.441L133.589 396.089C133.735 396.365 133.897 396.634 134.03 396.916L134.42 397.768L135.986 401.176L135.992 401.189C136.055 401.326 136.216 401.385 136.353 401.323C136.484 401.262 136.544 401.109 136.492 400.976C134.649 396.275 132.308 391.787 129.7 387.471C129.05 386.391 128.347 385.345 127.673 384.28C126.989 383.223 126.327 382.148 125.597 381.123C124.162 379.054 122.76 376.959 121.259 374.94L119.041 371.885C118.294 370.873 117.523 369.88 116.765 368.876L114.483 365.872L112.172 362.893C109.097 358.915 105.977 354.977 102.876 351.025C96.6673 343.127 90.4579 335.238 84.3385 327.281C78.2089 319.331 72.2082 311.287 66.2722 303.196L61.8751 297.087L59.6766 294.033C58.9423 293.015 58.2641 291.967 57.5551 290.936L53.3432 284.725L52.29 283.173L51.3103 281.573L49.3603 278.369C44.049 269.888 39.4668 260.97 35.356 251.855C31.2087 242.749 27.8734 233.273 25.3238 223.593C24.9641 222.392 24.7342 221.161 24.4288 219.947L23.5637 216.291L22.8523 212.602L22.4972 210.756C22.3913 210.139 22.3076 209.519 22.2116 208.9C22.0344 207.66 21.8187 206.424 21.6728 205.18L21.2651 201.442C21.0733 198.944 20.8593 196.438 20.9229 193.929C20.9242 193.911 20.9105 193.895 20.8918 193.893C20.8737 193.891 20.8578 193.907 20.8559 193.925Z" fill="white"/>
<path d="M439.255 152.79C434.947 143.814 431.865 134.418 431.146 124.187C429.335 98.4102 444.32 74.672 455.329 52.4782C465.446 32.08 472.966 1.68526 438.827 4.39016C411.628 6.54495 379.653 33.6503 376.004 61.9146C371.687 95.3666 387.972 137.551 368.664 167.937C341.653 210.447 322.169 200.705 322.169 272.44C322.169 303.092 339.148 319.999 358.595 329.312C389.289 344.011 425.889 338.071 450.344 314.404C471.95 293.495 484.796 263.438 480.451 233.261C476.063 202.784 452.158 179.671 439.255 152.79Z" fill="#91B3FA"/>
<path d="M416.435 383.427C416.009 383.427 415.621 383.138 415.512 382.706C398.592 315.168 389.382 253.944 388.137 200.737C387.141 158.131 391.22 120.532 400.264 88.9836C415.709 35.0988 439.934 17.793 440.958 17.0828C441.389 16.7833 441.982 16.89 442.282 17.322C442.582 17.7534 442.475 18.3464 442.044 18.6465C441.798 18.818 417.253 36.4108 402.022 89.7607C387.944 139.07 379.178 229.839 417.359 382.243C417.487 382.753 417.177 383.27 416.667 383.398C416.589 383.417 416.511 383.427 416.435 383.427Z" fill="#7D97F4"/>
<path d="M466.357 77.1664C465.042 76.8096 463.597 76.6983 462.058 76.8751C453.55 77.8535 450.056 86.8263 447.556 93.8415C445.415 99.8493 442.893 107.141 444.157 113.65C445.524 120.687 452.997 126.427 458.419 119.282C464.583 111.161 473.831 98.6925 473.888 87.9308C473.916 82.5816 470.912 78.4018 466.357 77.1664Z" fill="#91B3FA"/>
<path d="M529.341 329.785C532.821 306.858 524.489 280.537 520.33 256.292C518.131 243.473 517.114 230.751 519.173 217.836C521.22 204.996 527.253 191.108 521.69 178.315C510.481 152.542 483.834 164.271 468.57 183.673C450.857 206.189 446.015 242.981 439.287 271.312C435.231 288.391 429.122 305.909 426.982 323.313C423.438 352.145 429.957 372.162 443.749 385.68C456.978 398.646 477.125 401.334 493.307 392.322C507.926 384.18 523.727 366.771 529.341 329.785Z" fill="#BDD0FB"/>
<path d="M468.38 436.241C467.92 436.241 467.513 435.909 467.434 435.441C467.376 435.093 461.581 400.126 461.43 351.87C461.289 307.319 466.066 241.989 489.618 183.756C489.817 183.264 490.377 183.029 490.868 183.226C491.36 183.425 491.597 183.984 491.399 184.476C467.964 242.42 463.211 307.485 463.351 351.865C463.502 399.964 469.271 434.776 469.329 435.122C469.417 435.645 469.064 436.14 468.541 436.228C468.487 436.237 468.433 436.241 468.38 436.241Z" fill="#7D97F4"/>
<path d="M464.787 164.875H438.977V206.899H464.787V164.875Z" fill="url(#paint1_linear_9_59)"/>
<path d="M473.293 171.685H431.575V159.964C431.575 159.31 432.105 158.78 432.76 158.78H471.49C472.486 158.78 473.293 159.587 473.293 160.583L473.293 171.685Z" fill="url(#paint2_linear_9_59)"/>
<path d="M511.928 283.435H403.607V492.34H511.928V283.435Z" fill="#7D97F4"/>
<path d="M526.436 301.488H398.448L394.741 203.195L499.032 207.352L531.478 293.592C533.186 297.276 530.496 301.488 526.436 301.488Z" fill="url(#paint3_linear_9_59)"/>
<path d="M499.562 209.326L404.003 210.366L404.447 200.059L493.757 198.75C497.209 198.899 499.886 201.817 499.737 205.269L499.562 209.326Z" fill="url(#paint4_linear_9_59)"/>
<g opacity="0.89">
<path d="M488.82 435.6H427.359C427.238 435.6 427.141 435.503 427.141 435.382V340.393C427.141 340.272 427.238 340.175 427.359 340.175H488.82C488.941 340.175 489.038 340.272 489.038 340.393V435.382C489.038 435.503 488.941 435.6 488.82 435.6Z" fill="url(#paint5_linear_9_59)"/>
<path d="M455.565 430.442H431.775C431.708 430.442 431.654 430.388 431.654 430.321V345.454C431.654 345.387 431.709 345.333 431.775 345.333H455.565C455.632 345.333 455.686 345.387 455.686 345.454V430.321C455.686 430.388 455.632 430.442 455.565 430.442Z" fill="#7D97F4"/>
<path d="M484.404 430.442H460.614C460.547 430.442 460.493 430.388 460.493 430.321V345.454C460.493 345.387 460.547 345.333 460.614 345.333H484.404C484.471 345.333 484.525 345.387 484.525 345.454V430.321C484.525 430.388 484.471 430.442 484.404 430.442Z" fill="#7D97F4"/>
</g>
<path d="M132.278 283.435H23.9564V492.34H132.278V283.435Z" fill="#7D97F4"/>
<path d="M9.4485 301.488H137.436L142.658 209.36L36.8518 207.352L4.40654 293.593C2.69829 297.276 5.38803 301.488 9.4485 301.488Z" fill="url(#paint6_linear_9_59)"/>
<g opacity="0.89">
<path d="M47.064 435.6H108.526C108.646 435.6 108.744 435.503 108.744 435.382V340.393C108.744 340.272 108.646 340.175 108.526 340.175H47.064C46.9435 340.175 46.8458 340.272 46.8458 340.393V435.382C46.8458 435.503 46.9435 435.6 47.064 435.6Z" fill="url(#paint7_linear_9_59)"/>
<path d="M80.3193 430.442H104.109C104.176 430.442 104.23 430.388 104.23 430.321V345.454C104.23 345.387 104.176 345.333 104.109 345.333H80.3193C80.2523 345.333 80.1981 345.387 80.1981 345.454V430.321C80.1981 430.388 80.2523 430.442 80.3193 430.442Z" fill="#7D97F4"/>
<path d="M51.4804 430.442H75.2702C75.3372 430.442 75.3914 430.388 75.3914 430.321V345.454C75.3914 345.387 75.3372 345.333 75.2702 345.333H51.4804C51.4134 345.333 51.3592 345.387 51.3592 345.454V430.321C51.3592 430.388 51.4136 430.442 51.4804 430.442Z" fill="#7D97F4"/>
</g>
<path d="M36.4179 211.589L138.121 210.452L137.483 200.155L42.4252 200.88C38.7549 201.108 35.9529 204.087 36.1666 207.535L36.4179 211.589Z" fill="url(#paint8_linear_9_59)"/>
<path d="M418.938 254.42H117.955V492.34H418.938V254.42Z" fill="#BDD0FB"/>
<path d="M411.817 139.007H117.794L85.2194 250.947C84.4578 253.564 84.8945 256.373 86.4166 258.653L89.7668 263.672C91.5526 266.347 94.6067 267.96 97.8833 267.96H430.769C434.554 267.96 437.992 265.812 439.569 262.462L442.79 255.62C443.743 253.596 443.929 251.31 443.316 249.165L411.817 139.007Z" fill="url(#paint9_linear_9_59)"/>
<path d="M412.479 139.007H117.004V133.933C117.004 132.014 118.585 130.45 120.556 130.421L408.817 126.165C410.83 126.136 412.479 127.717 412.479 129.677V139.007Z" fill="url(#paint10_linear_9_59)"/>
<path d="M308.017 492.34H214.698V478.54C214.698 477.419 215.607 476.51 216.728 476.51H305.987C307.108 476.51 308.017 477.419 308.017 478.54V492.34Z" fill="#7D97F4"/>
<path d="M293.204 476.509H229.511V354.533C229.511 353.274 230.531 352.254 231.79 352.254H290.925C292.184 352.254 293.204 353.274 293.204 354.533V476.509Z" fill="#7D97F4"/>
<path opacity="0.46" d="M288.707 343.89H234.008C231.524 343.89 229.51 341.877 229.51 339.393V335.465C229.51 333.102 231.339 331.142 233.696 330.978L288.395 327.179C290.995 326.998 293.204 329.059 293.204 331.665V339.393C293.204 341.877 291.191 343.89 288.707 343.89Z" fill="white"/>
<path opacity="0.9" d="M343.785 288.692H343.18C327.449 288.692 313.677 299.829 313.677 315.56V343.89H343.785L343.785 288.692Z" fill="#7D97F4"/>
<path opacity="0.9" d="M313.677 352.254V435.6C313.677 438.407 316.971 442.758 319.778 442.758H343.785V352.254H313.677Z" fill="#7D97F4"/>
<path opacity="0.9" d="M352.006 288.692H350.476V343.89H380.584V315.56C380.584 299.829 367.737 288.692 352.006 288.692Z" fill="#7D97F4"/>
<path opacity="0.9" d="M350.476 442.758H375.408C378.214 442.758 380.584 438.407 380.584 435.6V352.254H350.476V442.758Z" fill="#7D97F4"/>
<path opacity="0.9" d="M177.952 288.692H177.347C161.616 288.692 147.844 299.829 147.844 315.56V343.89H177.952L177.952 288.692Z" fill="#7D97F4"/>
<path opacity="0.9" d="M147.844 352.254V435.6C147.844 438.407 151.138 442.758 153.945 442.758H177.952V352.254H147.844Z" fill="#7D97F4"/>
<path opacity="0.9" d="M186.173 288.692H184.643V343.89H214.751V315.56C214.751 299.829 201.904 288.692 186.173 288.692Z" fill="#7D97F4"/>
<path opacity="0.9" d="M184.643 442.758H209.575C212.381 442.758 214.751 438.407 214.751 435.6V352.254H184.643V442.758Z" fill="#7D97F4"/>
<path d="M199.663 254.769H107.647C105.376 254.769 103.294 253.726 101.934 251.908C100.573 250.089 100.162 247.797 100.803 245.619L127.088 156.41C127.143 156.226 127.337 156.118 127.522 156.174C127.707 156.229 127.812 156.423 127.758 156.608L101.473 245.816C100.894 247.781 101.266 249.849 102.493 251.49C103.72 253.13 105.598 254.071 107.647 254.071H199.663C199.856 254.071 200.012 254.227 200.012 254.42C200.012 254.613 199.856 254.769 199.663 254.769Z" fill="#BDD0FB"/>
<path d="M252.513 443.107H242.9C239.694 443.107 237.086 440.499 237.086 437.293V366.227C237.086 363.021 239.694 360.413 242.9 360.413H252.513C255.719 360.413 258.326 363.021 258.326 366.227V437.293C258.326 440.499 255.719 443.107 252.513 443.107ZM242.9 361.111C240.079 361.111 237.784 363.406 237.784 366.227V437.293C237.784 440.114 240.079 442.409 242.9 442.409H252.513C255.334 442.409 257.628 440.114 257.628 437.293V366.227C257.628 363.406 255.334 361.111 252.513 361.111H242.9Z" fill="white"/>
<path d="M279.339 443.107H269.726C266.52 443.107 263.912 440.499 263.912 437.293V366.227C263.912 363.021 266.52 360.413 269.726 360.413H279.339C282.545 360.413 285.152 363.021 285.152 366.227V437.293C285.152 440.499 282.545 443.107 279.339 443.107ZM269.726 361.111C266.905 361.111 264.61 363.406 264.61 366.227V437.293C264.61 440.114 266.905 442.409 269.726 442.409H279.339C282.16 442.409 284.454 440.114 284.454 437.293V366.227C284.454 363.406 282.16 361.111 279.339 361.111H269.726Z" fill="white"/>
<path d="M252.513 467.066H242.9C239.694 467.066 237.086 464.459 237.086 461.253V453.079C237.086 449.873 239.694 447.266 242.9 447.266H252.513C255.719 447.266 258.326 449.873 258.326 453.079V461.253C258.326 464.459 255.719 467.066 252.513 467.066ZM242.9 447.964C240.079 447.964 237.784 450.258 237.784 453.079V461.253C237.784 464.073 240.079 466.368 242.9 466.368H252.513C255.334 466.368 257.628 464.073 257.628 461.253V453.079C257.628 450.258 255.334 447.964 252.513 447.964H242.9Z" fill="white"/>
<path d="M279.339 467.066H269.726C266.52 467.066 263.912 464.459 263.912 461.253V453.079C263.912 449.873 266.52 447.266 269.726 447.266H279.339C282.545 447.266 285.152 449.873 285.152 453.079V461.253C285.152 464.459 282.545 467.066 279.339 467.066ZM269.726 447.964C266.905 447.964 264.61 450.258 264.61 453.079V461.253C264.61 464.073 266.905 466.368 269.726 466.368H279.339C282.16 466.368 284.454 464.073 284.454 461.253V453.079C284.454 450.258 282.16 447.964 279.339 447.964H269.726Z" fill="white"/>
<path d="M383.189 447.964H310.712C306.556 447.964 303.175 444.582 303.175 440.426V314.94C303.175 295.095 319.32 278.951 339.164 278.951H354.738C374.582 278.951 390.726 295.095 390.726 314.94V440.426C390.726 444.582 387.345 447.964 383.189 447.964ZM339.164 279.649C319.705 279.649 303.873 295.48 303.873 314.94V440.427C303.873 444.198 306.941 447.266 310.712 447.266H383.189C386.96 447.266 390.028 444.198 390.028 440.427V314.94C390.028 295.48 374.197 279.649 354.738 279.649H339.164Z" fill="white"/>
<path d="M217.388 447.964H144.911C140.756 447.964 137.375 444.582 137.375 440.426V314.94C137.375 295.095 153.519 278.951 173.363 278.951H188.936C208.781 278.951 224.925 295.095 224.925 314.94V440.426C224.925 444.582 221.544 447.964 217.388 447.964ZM173.363 279.649C153.904 279.649 138.073 295.48 138.073 314.94V440.427C138.073 444.198 141.141 447.266 144.912 447.266H217.389C221.159 447.266 224.227 444.198 224.227 440.427V314.94C224.227 295.48 208.396 279.649 188.937 279.649H173.363Z" fill="white"/>
<path d="M421.876 228.665C421.726 228.665 421.588 228.568 421.542 228.417L401.1 160.859C399.703 156.243 395.526 153.116 390.706 153.078C337.188 152.655 304.418 152.672 303.048 153.122C302.868 153.181 302.667 153.091 302.603 152.915C302.537 152.739 302.614 152.546 302.788 152.475C304.428 151.8 358.579 152.125 390.712 152.379C395.839 152.42 400.282 155.746 401.768 160.656L422.211 228.215C422.266 228.4 422.162 228.594 421.978 228.65C421.944 228.66 421.91 228.665 421.876 228.665Z" fill="#BDD0FB"/>
<path d="M260.871 478.58H93.0142V517.701H260.871V478.58Z" fill="url(#paint11_linear_9_59)"/>
<path d="M262.824 515.197H91.0224C90.1925 515.197 89.5198 514.524 89.5198 513.694V500.175H263.828V514.193C263.828 514.748 263.379 515.197 262.824 515.197Z" fill="url(#paint12_linear_9_59)"/>
<path d="M262.339 498.141H91.3786C90.352 498.141 89.5198 497.308 89.5198 496.282V483.119H263.828V496.651C263.828 497.474 263.161 498.141 262.339 498.141Z" fill="url(#paint13_linear_9_59)"/>
<path d="M263.828 483.119H89.5198V479.02C89.5198 478.172 90.2071 477.485 91.0549 477.485H262.274C263.132 477.485 263.828 478.181 263.828 479.04L263.828 483.119Z" fill="url(#paint14_linear_9_59)"/>
<path d="M417.031 496.106C422.679 498.852 424.671 506.398 421.48 512.96C418.29 519.521 411.124 522.614 405.476 519.868C399.828 517.121 397.837 509.575 401.027 503.014C404.218 496.452 411.383 493.359 417.031 496.106Z" fill="url(#paint15_linear_9_59)"/>
<path d="M407.735 499.317L402.262 510.573C401.968 511.176 401.241 511.428 400.638 511.134L394.037 507.925C393.434 507.631 393.183 506.904 393.476 506.3L398.949 495.044C399.243 494.441 399.97 494.19 400.574 494.483L407.174 497.693C407.778 497.986 408.029 498.713 407.735 499.317Z" fill="url(#paint16_linear_9_59)"/>
<path d="M400.475 493.259C399.438 498.584 397.074 503.341 393.479 507.571C391.536 509.856 388.42 510.88 385.321 510.257C355.69 504.308 293.589 465.926 233.281 432.396C229.284 430.173 226.522 427.652 228.405 423.779L232.564 415.226C234.436 411.377 238.915 413.544 243.119 415.271C306.912 441.48 374.574 464.326 397.801 485.465C400.031 487.494 401.023 490.449 400.475 493.259Z" fill="url(#paint17_linear_9_59)"/>
<path d="M242.088 406.791L228.265 435.216C227.984 435.795 227.286 436.036 226.707 435.755L219.871 432.43C219.292 432.149 219.05 431.451 219.332 430.872L233.155 402.447C233.436 401.868 234.134 401.627 234.713 401.908L241.549 405.233C242.128 405.514 242.369 406.212 242.088 406.791Z" fill="url(#paint18_linear_9_59)"/>
<path d="M179.323 377.804L165.501 406.229C165.219 406.808 164.521 407.049 163.942 406.768L157.106 403.443C156.527 403.162 156.286 402.464 156.567 401.885L170.39 373.46C170.672 372.881 171.369 372.64 171.948 372.921L178.785 376.246C179.364 376.527 179.605 377.225 179.323 377.804Z" fill="url(#paint19_linear_9_59)"/>
<path d="M248.433 378.127L203.815 469.88L141.654 439.652L186.271 347.899L248.433 378.127Z" fill="url(#paint20_linear_9_59)"/>
<path d="M206.168 465.041L200.557 476.58L138.396 446.352L144.007 434.813L206.168 465.041Z" fill="url(#paint21_linear_9_59)"/>
<path d="M203.091 471.369L200.302 477.103C199.45 478.857 197.453 479.736 195.584 479.181C176.206 473.427 157.452 464.459 139.409 451.832C137.829 450.726 137.286 448.634 138.13 446.899L140.93 441.141L203.091 471.369Z" fill="url(#paint22_linear_9_59)"/>
<path d="M209.277 462.907L207.133 467.315C206.876 467.845 206.237 468.066 205.706 467.808L140.999 436.342C140.468 436.084 140.248 435.445 140.506 434.915L142.649 430.507C142.907 429.977 143.546 429.756 144.076 430.014L208.784 461.48C209.314 461.738 209.535 462.377 209.277 462.907Z" fill="url(#paint23_linear_9_59)"/>
<path d="M208.993 463.491L207.417 466.731C207.227 467.121 206.758 467.284 206.368 467.094L141.152 435.381C140.762 435.191 140.6 434.721 140.79 434.331L142.365 431.091C142.555 430.701 143.025 430.538 143.415 430.728L208.63 462.441C209.02 462.631 209.183 463.101 208.993 463.491Z" fill="url(#paint24_linear_9_59)"/>
<path d="M248.795 377.383L254.406 365.844L192.245 335.616L186.633 347.155L248.795 377.383Z" fill="url(#paint25_linear_9_59)"/>
<path d="M251.872 371.055L254.66 365.32C255.513 363.567 254.972 361.453 253.381 360.326C236.889 348.638 218.255 339.424 197.18 333.029C195.335 332.469 193.354 333.335 192.511 335.069L189.711 340.827L251.872 371.055Z" fill="url(#paint26_linear_9_59)"/>
<path d="M249.036 381.146L251.179 376.738C251.437 376.208 251.216 375.569 250.686 375.311L185.978 343.845C185.448 343.587 184.809 343.808 184.551 344.338L182.408 348.746C182.15 349.276 182.371 349.915 182.901 350.173L247.609 381.639C248.139 381.897 248.778 381.676 249.036 381.146Z" fill="url(#paint27_linear_9_59)"/>
<path d="M249.32 380.562L250.896 377.322C251.085 376.932 250.923 376.462 250.533 376.272L185.317 344.559C184.927 344.369 184.458 344.532 184.268 344.922L182.692 348.162C182.502 348.552 182.665 349.022 183.055 349.212L248.27 380.925C248.66 381.115 249.13 380.952 249.32 380.562Z" fill="url(#paint28_linear_9_59)"/>
<path d="M117.083 349.707C112.433 347.203 105.399 356.37 105.399 356.37C105.399 356.37 80.7805 359.943 74.163 358.35C67.5459 356.756 60.9471 330.99 60.9471 330.99C60.9471 330.99 44.9726 324.43 54.1199 355.75C62.6522 384.964 105.398 361.953 105.398 361.953C105.398 361.953 117.679 362.464 120.659 359.96C123.64 357.456 121.733 352.211 117.083 349.707Z" fill="url(#paint29_linear_9_59)"/>
<path d="M106.555 355.151C106.555 355.151 108.021 349.541 112.456 348.257C116.89 346.974 116.844 347.839 116.208 349.071C115.572 350.303 108.347 357.695 106.555 355.151Z" fill="url(#paint30_linear_9_59)"/>
<path d="M78.9862 357.558C69.9955 355.875 69.0169 334.808 69.0169 334.808C69.0169 334.808 52.1129 322.786 57.1768 355.019C59.619 370.563 71.3285 374.124 88.0156 369.77C88.2202 369.716 88.372 369.528 88.3747 369.316C88.4264 365.192 86.6066 361.957 87.5731 357.856C86.6132 357.789 79.6858 357.689 78.9862 357.558Z" fill="url(#paint31_linear_9_59)"/>
<path d="M116.546 327.516C131.849 327.516 144.255 315.11 144.255 299.806C144.255 284.503 131.849 272.097 116.546 272.097C101.243 272.097 88.8367 284.503 88.8367 299.806C88.8367 315.11 101.243 327.516 116.546 327.516Z" fill="white"/>
<path d="M116.546 323.129C103.686 323.129 93.2236 312.666 93.2236 299.806C93.2236 286.946 103.686 276.484 116.546 276.484C129.406 276.484 139.868 286.946 139.868 299.806C139.868 312.666 129.406 323.129 116.546 323.129ZM116.546 277.288C104.129 277.288 94.0273 287.389 94.0273 299.806C94.0273 312.223 104.129 322.325 116.546 322.325C128.963 322.325 139.065 312.223 139.065 299.806C139.065 287.389 128.963 277.288 116.546 277.288Z" fill="url(#paint32_linear_9_59)"/>
<path d="M125.188 330.606H107.22V322.765C107.22 322.591 107.362 322.449 107.536 322.449H124.669C124.956 322.449 125.188 322.681 125.188 322.968V330.606Z" fill="url(#paint33_linear_9_59)"/>
<path d="M118.258 372.499H113.984C113.832 372.499 113.708 372.376 113.708 372.224V328.188C113.708 328.036 113.832 327.913 113.984 327.913H118.258C118.41 327.913 118.533 328.036 118.533 328.188V372.224C118.533 372.376 118.41 372.499 118.258 372.499Z" fill="url(#paint34_linear_9_59)"/>
<path d="M125.97 330.945H106.565C106.467 330.945 106.388 330.867 106.388 330.769V327.692C106.388 327.595 106.467 327.516 106.565 327.516H125.97C126.067 327.516 126.146 327.595 126.146 327.692V330.769C126.147 330.867 126.067 330.945 125.97 330.945Z" fill="url(#paint35_linear_9_59)"/>
<path d="M100.884 289.599H105.805C107.811 289.599 109.271 289.989 110.185 290.767C111.1 291.545 111.557 292.783 111.557 294.481C111.557 295.598 111.316 296.532 110.832 297.284C110.348 298.036 109.689 298.491 108.853 298.65V298.782C109.944 299.054 110.731 299.564 111.215 300.312C111.698 301.059 111.94 302.053 111.94 303.293C111.94 305.044 111.472 306.414 110.535 307.403C109.599 308.393 108.317 308.888 106.69 308.888H100.885V289.599H100.884ZM104.262 297.357H105.911C106.667 297.357 107.2 297.154 107.507 296.75C107.815 296.345 107.969 295.743 107.969 294.942C107.969 294.142 107.793 293.568 107.441 293.22C107.09 292.873 106.536 292.699 105.779 292.699H104.262V297.357ZM104.262 300.351V305.747H106.069C106.817 305.747 107.373 305.518 107.739 305.061C108.103 304.604 108.286 303.896 108.286 302.937C108.286 301.213 107.529 300.351 106.017 300.351L104.262 300.351Z" fill="url(#paint36_linear_9_59)"/>
<path d="M115.225 308.887V289.599H118.603V308.887H115.225Z" fill="url(#paint37_linear_9_59)"/>
<path d="M134.949 299.059C134.949 302.243 134.3 304.677 133.003 306.361C131.706 308.045 129.839 308.887 127.403 308.887H122.679V289.6H127.838C130.081 289.6 131.826 290.428 133.075 292.086C134.324 293.744 134.949 296.068 134.949 299.059ZM131.268 299.164C131.268 294.854 130.081 292.7 127.706 292.7H126.268V305.747H127.429C128.739 305.747 129.707 305.2 130.331 304.105C130.956 303.01 131.268 301.363 131.268 299.164Z" fill="url(#paint38_linear_9_59)"/>
<path d="M116.049 350.78C116.049 350.78 110.883 350.462 110.963 353.721C111.042 356.98 110.723 361.586 113.506 361.787C116.288 361.987 121.436 362.508 121.843 358.273C122.249 354.039 116.526 349.27 116.049 350.78Z" fill="url(#paint39_linear_9_59)"/>
<path d="M43.7898 518.396C43.2323 516.417 41.4052 515.075 39.3501 515.14L37.3175 515.204C26.6096 517.771 21.03 523.976 18.8292 527.027C18.7423 527.148 18.8208 527.316 18.9689 527.328C22.3479 527.602 30.1989 528.145 36.844 527.959C41.2765 527.835 43.6427 527.661 44.8281 527.176C44.8081 523.716 44.3304 520.316 43.7898 518.396Z" fill="url(#paint40_linear_9_59)"/>
<path d="M36.918 527.728C41.3505 527.604 43.6433 527.082 44.8284 526.598C44.8311 527.038 44.8286 527.487 44.8142 527.952C44.7989 528.448 44.4312 528.845 43.9791 528.842L19.6412 528.684C18.8645 528.68 18.4106 527.779 18.7471 527.067C21.9384 527.33 30.0657 527.92 36.918 527.728Z" fill="#7D97F4"/>
<path d="M33.9003 508.221L35.6002 516.404C35.7247 517.004 36.1854 517.453 36.7435 517.505C37.4266 517.569 38.3989 517.607 39.3769 517.463C40.2539 517.334 40.8646 516.443 40.709 515.487L39.5275 508.221H33.9003Z" fill="url(#paint41_linear_9_59)"/>
<path d="M69.1199 527.728C64.6873 527.604 62.3946 527.082 61.2094 526.598C61.2065 527.038 61.2092 527.487 61.2234 527.952C61.2388 528.448 61.6064 528.845 62.0586 528.842L86.3965 528.684C87.1732 528.68 87.6271 527.779 87.2905 527.067C84.0995 527.33 75.9721 527.92 69.1199 527.728Z" fill="#7D97F4"/>
<path d="M87.2907 527.066C87.2613 527.004 87.2361 526.941 87.1943 526.883C85.0447 523.879 79.5706 517.899 68.7531 515.305L63.5639 515.142C63.5639 515.142 61.2531 519.158 61.2095 526.597C62.3947 527.082 64.6874 527.604 69.12 527.728C75.9722 527.92 84.0996 527.33 87.2907 527.066Z" fill="url(#paint42_linear_9_59)"/>
<path d="M62.6015 507.277C62.6592 507.664 63.3704 513.543 63.6458 515.822C63.7113 516.364 64.1036 516.783 64.5983 516.842C65.4819 516.948 66.9119 517.044 68.1629 516.787C68.8377 516.649 69.3263 516.001 69.3263 515.247V506.019L62.6015 507.277Z" fill="url(#paint43_linear_9_59)"/>
<path d="M58.4383 399.988C58.4383 399.988 70.9546 447.555 70.7285 507.413C70.7244 508.504 69.9582 509.446 68.89 509.671C67.3164 510.003 65.0031 510.396 63.0879 510.343C62.0656 510.314 61.211 509.556 61.039 508.547C59.2839 498.256 49.2124 440.276 43.4741 430.863C43.4741 430.863 39.6987 482.502 40.9056 509.293C40.9355 509.959 40.4477 510.537 39.7853 510.614C38.7805 510.73 37.1729 510.818 35.1273 510.601C34.3506 510.518 33.7242 509.931 33.6132 509.158C32.3632 500.448 25.168 448.601 25.4738 411.252C25.4911 409.146 31.0437 399.988 31.0437 399.988H58.4383Z" fill="url(#paint44_linear_9_59)"/>
<path d="M19.4213 358.619C16.019 349.307 17.2533 338.064 17.2662 337.952L18.2036 338.059C18.1911 338.17 16.983 349.197 20.308 358.295L19.4213 358.619Z" fill="url(#paint45_linear_9_59)"/>
<path d="M14.1694 332.103C15.6619 330.659 17.4845 329.172 19.3575 328.26C21.8366 327.053 24.833 326.753 27.5418 326.278C30.6598 325.73 33.7967 325.288 36.9462 324.965C41.6432 324.484 45.7728 324.8 50.4944 324.889C52.0192 324.917 57.2733 326.446 61.1966 327.603C66.0079 329.021 69.471 333.281 69.7687 338.288C69.8078 338.945 69.8218 339.598 69.8148 340.234C69.7108 349.708 69.5041 352.907 67.6654 362.269C67.6062 362.21 58.504 391.357 60.1308 403.142C60.2656 404.146 59.5962 405.08 58.592 405.227C53.1427 406.037 36.8884 408.051 28.45 404.669C27.9568 404.475 27.6395 404 27.6395 403.465C27.6574 399.572 27.3165 382.66 20.8982 362.342C20.6635 361.584 20.4639 360.815 20.3052 360.034C15.6546 369.847 15.8367 377.845 18.0563 384.104C15.5784 386.753 11.9256 389.037 9.35945 390.464C1.60559 380.879 -1.80351 368.906 0.936948 356.785C2.04825 351.869 4.05109 347.397 6.45655 343C8.56101 339.153 10.9892 335.181 14.1694 332.103Z" fill="url(#paint46_linear_9_59)"/>
<path d="M32.8306 401.159C30.5143 399.86 21.5308 394.281 17.9208 384.104C15.4418 386.75 11.7922 389.036 9.22388 390.462C13.0593 395.203 18.2493 399.951 25.12 404.598C25.3637 409.885 29.4282 411.843 30.3581 413.556C31.2879 415.268 29.9667 414.877 30.5539 417.03C31.141 419.183 37.3069 413.604 38.7749 412.332C40.243 411.06 39.3622 407.536 39.3622 407.536C39.3622 407.536 39.4599 406.802 39.8515 405.334C40.2422 403.869 32.8607 401.17 32.8306 401.159Z" fill="url(#paint47_linear_9_59)"/>
<path d="M36.3191 311.354L34.6923 327.976C34.6923 327.976 44.0428 330.792 50.8439 325.994L46.063 310.887L36.3191 311.354Z" fill="url(#paint48_linear_9_59)"/>
<path d="M52.1911 297.189C52.3021 297.477 52.7721 317.907 52.7721 317.907L41.1016 317.927L37.7794 298.631C37.7794 298.631 50.3315 292.36 52.1911 297.189Z" fill="url(#paint49_linear_9_59)"/>
<path d="M41.7794 301.043C41.4003 301.399 41.2073 301.907 41.2553 302.425L42.1949 312.571C42.2092 312.725 42.2427 312.874 42.299 313.018C42.6097 313.812 43.8024 316.259 46.2862 314.901C48.4035 313.743 50.3649 312.709 51.9581 312.659C52.8885 312.63 53.6561 313.379 53.674 314.31C53.7111 316.227 53.7074 320.096 53.2212 323.533C53.0994 324.395 52.3279 325.012 51.4595 324.957C49.1679 324.813 44.7015 324.396 41.1143 323.244C40.5251 323.054 40.09 322.558 39.9777 321.95C39.4831 319.271 38.0668 311.77 37.3412 309.714C36.6669 307.804 34.0461 307.142 32.8219 306.934C32.3573 306.856 31.9497 306.59 31.691 306.196C30.9155 305.014 29.7978 302.462 32.8721 300.528C33.6365 300.047 33.8567 299.023 33.3917 298.249C32.5584 296.861 31.9594 294.721 34.3899 292.89C36.8505 291.037 39.2344 291.91 40.6941 292.845C41.3401 293.258 42.2098 293.233 42.7803 292.72C43.0341 292.492 43.3821 292.361 43.8551 292.481C44.7474 292.707 45.6382 292.22 45.87 291.329C46.2672 289.802 47.3447 288.088 50.1621 287.933C55.3294 287.65 57.1497 293.033 56.5748 296.561C55.9996 300.09 50.3799 300.078 47.3299 299.061C45.0894 298.314 42.8241 300.062 41.7794 301.043Z" fill="url(#paint50_linear_9_59)"/>
<path d="M38.2563 313.291C38.2563 313.291 38.464 307.268 36.0436 306.345C33.6234 305.422 30.6785 306.86 32.3096 310.85C34.3385 315.815 38.2563 313.291 38.2563 313.291Z" fill="url(#paint51_linear_9_59)"/>
<path d="M111.271 114.715C125.281 114.715 136.638 103.358 136.638 89.3482C136.638 75.3384 125.281 63.9812 111.271 63.9812C97.2611 63.9812 85.9039 75.3384 85.9039 89.3482C85.9039 103.358 97.2611 114.715 111.271 114.715Z" fill="url(#paint52_linear_9_59)"/>
<path d="M111.271 113.872C124.815 113.872 135.794 102.892 135.794 89.3482C135.794 75.8042 124.815 64.8247 111.271 64.8247C97.727 64.8247 86.7474 75.8042 86.7474 89.3482C86.7474 102.892 97.727 113.872 111.271 113.872Z" fill="url(#paint53_linear_9_59)"/>
<path opacity="0.7" d="M91.0479 80.1913C90.8918 80.1913 90.7335 80.1562 90.5846 80.0808C90.0765 79.8243 89.873 79.2046 90.1295 78.6976C94.1826 70.6682 102.284 65.6807 111.271 65.6807C112.706 65.6807 114.142 65.8095 115.539 66.065C116.099 66.1666 116.47 66.7028 116.368 67.2632C116.266 67.8224 115.73 68.1986 115.17 68.091C113.894 67.8586 112.583 67.7408 111.271 67.7408C103.066 67.7408 95.6693 72.2948 91.9683 79.6251C91.7872 79.9842 91.4246 80.1913 91.0479 80.1913Z" fill="white"/>
<path opacity="0.78" d="M126.479 104.559C134.585 96.4537 134.585 83.3118 126.479 75.2062C118.374 67.1005 105.232 67.1005 97.1261 75.2061C89.0204 83.3118 89.0204 96.4537 97.1261 104.559C105.232 112.665 118.374 112.665 126.479 104.559Z" fill="white"/>
<path d="M109.768 105.313V103.055C107.414 102.96 105.086 102.405 103.432 101.681C102.842 101.422 102.541 100.76 102.71 100.138L103.284 98.0344C103.494 97.2627 104.333 96.8636 105.071 97.1728C106.712 97.8604 108.737 98.4045 110.921 98.4045C113.188 98.4045 114.879 97.6358 114.879 96.0601C114.879 94.6383 113.573 93.793 110.422 92.9475C105.925 91.7177 102.697 89.7578 102.697 85.7993C102.697 82.2253 105.31 79.4966 109.845 78.7666V76.5082C109.845 75.7817 110.434 75.1925 111.161 75.1925H112.488C113.214 75.1925 113.803 75.7817 113.803 76.5082V78.5359C115.982 78.6232 117.567 78.9957 118.825 79.4378C119.47 79.6643 119.822 80.3588 119.644 81.0183L119.116 82.9637C118.913 83.7137 118.111 84.1247 117.384 83.8497C116.225 83.4116 114.587 82.9555 112.458 82.9555C109.768 82.9555 109 84.0699 109 85.0691C109 86.2987 110.614 87.1442 114.111 88.2205C119.107 89.7191 121.182 91.7944 121.182 95.5222C121.182 98.9426 118.645 102.017 113.726 102.786V105.313C113.726 106.039 113.137 106.628 112.411 106.628H111.084C110.358 106.629 109.768 106.04 109.768 105.313Z" fill="url(#paint54_linear_9_59)"/>
<path d="M183.479 103.426C207.867 103.426 227.638 83.6547 227.638 59.2661C227.638 34.8775 207.867 15.1067 183.479 15.1067C159.09 15.1067 139.319 34.8775 139.319 59.2661C139.319 83.6547 159.09 103.426 183.479 103.426Z" fill="url(#paint55_linear_9_59)"/>
<path d="M183.479 101.957C207.056 101.957 226.17 82.8439 226.17 59.2662C226.17 35.6885 207.056 16.575 183.479 16.575C159.901 16.575 140.787 35.6885 140.787 59.2662C140.787 82.8439 159.901 101.957 183.479 101.957Z" fill="url(#paint56_linear_9_59)"/>
<path opacity="0.7" d="M148.275 42.5618C148.119 42.5618 147.961 42.5266 147.812 42.451C147.304 42.1946 147.1 41.5749 147.356 41.0679C154.281 27.3497 168.122 18.8273 183.478 18.8273C185.929 18.8273 188.383 19.0486 190.772 19.4841C191.332 19.5857 191.703 20.1218 191.601 20.6822C191.5 21.2415 190.965 21.6227 190.403 21.51C188.135 21.0967 185.806 20.8872 183.478 20.8872C168.904 20.8872 155.768 28.9751 149.195 41.9952C149.014 42.3547 148.652 42.5618 148.275 42.5618Z" fill="white"/>
<path opacity="0.78" d="M209.955 85.7465C224.066 71.6359 224.066 48.7581 209.955 34.6475C195.845 20.5369 172.967 20.5369 158.856 34.6475C144.746 48.7581 144.746 71.6359 158.856 85.7465C172.967 99.8571 195.845 99.8571 209.955 85.7465Z" fill="white"/>
<path d="M180.863 87.0579V83.1268C176.765 82.9628 172.711 81.9955 169.833 80.7354C168.805 80.2855 168.281 79.1316 168.576 78.0489L169.575 74.3872C169.941 73.0439 171.402 72.3492 172.686 72.8874C175.541 74.0846 179.068 75.0317 182.87 75.0317C186.817 75.0317 189.761 73.6935 189.761 70.9505C189.761 68.4755 187.486 67.0037 182 65.5319C174.173 63.3911 168.553 59.9789 168.553 53.0884C168.553 46.8664 173.103 42.1165 180.997 40.8456V36.9142C180.997 35.6492 182.022 34.6238 183.287 34.6238H185.597C186.862 34.6238 187.887 35.6492 187.887 36.9142V40.444C191.679 40.5957 194.44 41.2442 196.63 42.0139C197.753 42.4081 198.366 43.6172 198.055 44.7654L197.136 48.1518C196.782 49.4576 195.387 50.1729 194.121 49.6943C192.104 48.9316 189.253 48.1374 185.546 48.1374C180.863 48.1374 179.525 50.0775 179.525 51.8168C179.525 53.9576 182.335 55.4292 188.423 57.3028C197.12 59.9119 200.732 63.5244 200.732 70.0137C200.732 75.9678 196.317 81.3199 187.754 82.6579V87.0573C187.754 88.3223 186.728 89.3479 185.463 89.3479H183.153C181.888 89.3483 180.863 88.3229 180.863 87.0579Z" fill="url(#paint57_linear_9_59)"/>
<path d="M213.934 203.338C239.029 203.338 259.373 182.994 259.373 157.899C259.373 132.803 239.029 112.459 213.934 112.459C188.838 112.459 168.494 132.803 168.494 157.899C168.494 182.994 188.838 203.338 213.934 203.338Z" fill="url(#paint58_linear_9_59)"/>
<path d="M213.934 201.827C238.195 201.827 257.862 182.16 257.862 157.899C257.862 133.637 238.195 113.97 213.934 113.97C189.673 113.97 170.005 133.637 170.005 157.899C170.005 182.16 189.673 201.827 213.934 201.827Z" fill="url(#paint59_linear_9_59)"/>
<path opacity="0.7" d="M177.71 140.68C177.554 140.68 177.395 140.645 177.247 140.57C176.738 140.313 176.535 139.694 176.791 139.187C183.911 125.08 198.143 116.317 213.934 116.317C216.449 116.317 218.972 116.545 221.433 116.992C221.993 117.094 222.364 117.63 222.263 118.189C222.161 118.749 221.624 119.128 221.065 119.018C218.725 118.593 216.326 118.377 213.934 118.377C198.925 118.377 185.398 126.707 178.63 140.114C178.449 140.473 178.086 140.68 177.71 140.68Z" fill="white"/>
<path opacity="0.78" d="M241.177 185.147C255.697 170.627 255.697 147.086 241.177 132.566C226.657 118.047 203.116 118.046 188.597 132.566C174.077 147.086 174.077 170.627 188.597 185.146C203.117 199.666 226.658 199.666 241.177 185.147Z" fill="white"/>
<path d="M211.242 186.496V182.451C207.026 182.282 202.855 181.287 199.892 179.99C198.834 179.527 198.295 178.34 198.599 177.226L199.627 173.458C200.004 172.076 201.507 171.361 202.828 171.915C205.767 173.147 209.395 174.121 213.307 174.121C217.369 174.121 220.398 172.744 220.398 169.922C220.398 167.375 218.057 165.861 212.412 164.346C204.358 162.143 198.575 158.632 198.575 151.542C198.575 145.139 203.257 140.252 211.38 138.944V134.899C211.38 133.597 212.435 132.542 213.737 132.542H216.113C217.415 132.542 218.47 133.597 218.47 134.899V138.531C222.372 138.687 225.213 139.354 227.467 140.146C228.621 140.552 229.253 141.796 228.932 142.978L227.987 146.462C227.623 147.806 226.187 148.542 224.884 148.05C222.809 147.265 219.875 146.448 216.061 146.448C211.242 146.448 209.866 148.444 209.866 150.234C209.866 152.437 212.757 153.951 219.021 155.879C227.97 158.564 231.687 162.281 231.687 168.958C231.687 175.085 227.144 180.592 218.333 181.969V186.496C218.333 187.798 217.277 188.853 215.976 188.853H213.599C212.298 188.853 211.242 187.798 211.242 186.496Z" fill="url(#paint60_linear_9_59)"/>
<path d="M272.227 129.294C290.614 129.294 305.52 114.388 305.52 96.001C305.52 77.6137 290.614 62.7078 272.227 62.7078C253.839 62.7078 238.934 77.6137 238.934 96.001C238.934 114.388 253.839 129.294 272.227 129.294Z" fill="url(#paint61_linear_9_59)"/>
<path d="M272.227 128.187C290.003 128.187 304.413 113.777 304.413 96.0011C304.413 78.2251 290.003 63.8149 272.227 63.8149C254.451 63.8149 240.041 78.2251 240.041 96.0011C240.041 113.777 254.451 128.187 272.227 128.187Z" fill="url(#paint62_linear_9_59)"/>
<path opacity="0.7" d="M245.685 83.6609C245.53 83.6609 245.371 83.6257 245.222 83.5503C244.714 83.2938 244.511 82.6741 244.767 82.1671C250.031 71.7373 260.553 65.259 272.226 65.259C274.087 65.259 275.952 65.4271 277.771 65.759C278.331 65.8606 278.702 66.3967 278.6 66.9571C278.498 67.5173 277.961 67.8916 277.402 67.7849C275.704 67.4761 273.963 67.3191 272.226 67.3191C261.335 67.3191 251.518 73.364 246.606 83.0946C246.425 83.4537 246.062 83.6609 245.685 83.6609Z" fill="white"/>
<path opacity="0.78" d="M292.187 115.966C302.825 105.328 302.825 88.0794 292.187 77.441C281.548 66.8026 264.3 66.8026 253.662 77.441C243.023 88.0794 243.023 105.328 253.662 115.966C264.3 126.604 281.548 126.604 292.187 115.966Z" fill="white"/>
<path d="M270.255 116.954V113.99C267.165 113.867 264.109 113.138 261.939 112.188C261.163 111.848 260.769 110.978 260.991 110.162L261.744 107.401C262.02 106.389 263.122 105.865 264.09 106.271C266.243 107.173 268.901 107.887 271.768 107.887C274.744 107.887 276.963 106.879 276.963 104.81C276.963 102.944 275.248 101.835 271.112 100.725C265.211 99.1113 260.974 96.5387 260.974 91.3437C260.974 86.6526 264.404 83.0717 270.356 82.1136V79.1495C270.356 78.1957 271.129 77.4225 272.083 77.4225H273.824C274.778 77.4225 275.551 78.1957 275.551 79.1495V81.8106C278.41 81.9251 280.491 82.414 282.142 82.9942C282.988 83.2915 283.451 84.2031 283.216 85.0686L282.524 87.6217C282.257 88.6061 281.205 89.1455 280.251 88.7847C278.73 88.2097 276.58 87.611 273.786 87.611C270.255 87.611 269.246 89.0734 269.246 90.3851C269.246 91.9991 271.365 93.1086 275.955 94.5209C282.512 96.488 285.235 99.2116 285.235 104.104C285.235 108.593 281.906 112.628 275.45 113.637V116.954C275.45 117.908 274.677 118.681 273.723 118.681H271.982C271.028 118.681 270.255 117.908 270.255 116.954Z" fill="url(#paint63_linear_9_59)"/>
<path d="M504.099 364.92C500.401 351.243 488.976 340.007 476.244 337.167C473.905 336.645 472.55 334.262 473.099 331.929C473.103 331.913 473.107 331.897 473.111 331.881C474.955 323.926 469.856 317.59 462.167 315.806C454.478 314.023 447.11 317.468 445.265 325.422C444.02 330.79 445.615 336.829 449.145 340.739C450.6 342.351 450.717 344.756 449.307 346.407C441.549 355.496 438.393 369.37 441.748 381.779C446.69 400.056 463.876 408.221 481.094 403.566C498.312 398.91 509.041 383.197 504.099 364.92Z" fill="url(#paint64_linear_9_59)"/>
<path d="M411.692 345.249C411.812 345.192 411.94 345.151 412.071 345.13C413.221 344.946 413.673 346.247 414.678 346.342C414.868 346.36 415.091 346.319 415.183 346.152C415.455 345.655 415.098 345.299 414.961 344.86C414.819 344.406 414.892 343.904 415.03 343.459C415.211 342.875 415.533 342.319 415.914 341.842C415.914 341.842 416.064 343.624 417.442 344.721C418.628 345.667 419.229 347.809 418.465 349.591C416.899 356.185 414.533 364.913 424.507 371.067C434.482 377.222 448.014 358.652 448.014 358.652L441.539 380.619C441.539 380.619 431.055 388.665 418.48 377.867C405.914 367.076 413.787 350.883 413.799 350.859C413.771 350.917 412.066 350.013 411.98 349.936C411.227 349.265 411.018 348.149 410.894 347.138C410.852 346.801 410.831 346.453 410.929 346.128C411.045 345.745 411.333 345.422 411.692 345.249Z" fill="url(#paint65_linear_9_59)"/>
<path d="M448.89 356.236C451.821 355.297 460.373 353.503 468.68 360.883C470.089 362.135 470.691 364.066 470.232 365.893C468.191 374.008 462.856 397.968 468.124 408.193C468.124 408.193 459.37 418.216 449.467 410.458C449.467 410.458 444.731 391.469 438.841 383.204C434.775 377.499 444.741 361.379 447.266 357.483C447.649 356.893 448.22 356.451 448.89 356.236Z" fill="url(#paint66_linear_9_59)"/>
<path d="M456.726 340.044C456.726 340.044 461.319 352.293 461.75 357.727C461.75 357.727 456.973 360.009 452.363 356.397C452.363 356.397 451.653 344.088 450.924 341.896L456.726 340.044Z" fill="url(#paint67_linear_9_59)"/>
<path d="M450.353 323.344C450.353 323.344 439.251 339.517 446.155 344.024C453.059 348.53 460.962 337.036 460.962 337.036C460.962 337.036 463.443 328.252 460.621 325.342C457.798 322.43 450.353 323.344 450.353 323.344Z" fill="url(#paint68_linear_9_59)"/>
<path d="M455.559 319.431C455.559 319.431 450.344 320.771 449.655 323.155C448.965 325.539 457.17 327.583 459.459 327.647L461.482 337.177C461.482 337.177 466.761 328.077 464.504 322.921C462.248 317.765 455.559 319.431 455.559 319.431Z" fill="url(#paint69_linear_9_59)"/>
<path d="M458.73 335.904C458.73 335.904 463.071 330.68 464.9 333.998C466.729 337.315 461.015 339.94 458.99 338.332L458.73 335.904Z" fill="url(#paint70_linear_9_59)"/>
<path d="M438.838 450.716C438.888 451.581 437.497 458.477 436.739 462.156C436.434 463.636 436.695 465.174 437.47 466.471L467.032 514.152C467.39 514.729 467.654 515.356 467.819 516.014C468.387 518.267 469.581 523.792 469.108 528.848L467.684 531.954L474.066 530.378L475.136 513.137L473.3 512.065C471.714 511.138 470.467 509.732 469.736 508.048C467.026 501.803 460.29 485.906 458.484 478.131C456.432 469.294 446.443 462.273 446.443 462.273L448.097 458.148L438.838 450.716Z" fill="url(#paint71_linear_9_59)"/>
<path d="M481.079 524.32C481.079 524.32 477.513 518.897 477.066 516.768C476.618 514.64 475.413 510.889 473.3 512.065C473.3 512.065 472.49 522.461 472.914 526.51C473.337 530.558 468.404 530.521 468.404 530.521C468.404 530.521 467.049 530.737 466.072 531.751C465.398 532.451 465.912 533.634 466.883 533.678C468.498 533.751 471.062 533.73 473.743 533.16C474.68 532.96 475.362 532.147 475.401 531.189L475.886 519.232L480.356 524.663L481.079 524.32Z" fill="url(#paint72_linear_9_59)"/>
<path d="M456.099 458.074C456.099 458.074 457.924 501.188 458.176 507.312C458.429 513.435 457.581 527.032 451.516 531.206L454.226 533.134C454.226 533.134 457.512 530.232 460.672 524.708C464.221 518.502 465.308 517.36 465.308 517.36L464.045 514.892C463.492 513.812 463.312 512.581 463.535 511.388C464.739 504.94 468.763 483.492 469.884 478.869C471.207 473.411 471.171 466.156 466.097 460.179C461.022 454.202 456.099 458.074 456.099 458.074Z" fill="url(#paint73_linear_9_59)"/>
<path d="M463.223 534.909C463.413 534.907 463.573 534.768 463.596 534.578C463.773 533.136 464.515 527.355 465.183 525.849C465.948 524.125 468.417 516.88 465.002 516.333C465.002 516.333 456.773 528.856 455.18 530.554C453.587 532.252 451.516 531.206 451.516 531.206C451.516 531.206 449.942 531.703 448.778 533.251C448.223 533.988 448.772 535.043 449.695 535.035L455.395 534.982C457.051 534.966 458.521 533.933 459.107 532.384C460.063 529.859 461.718 526.151 463.696 524.482L462.841 534.496C462.821 534.72 462.998 534.911 463.223 534.909Z" fill="url(#paint74_linear_9_59)"/>
<path d="M448.03 405.833C448.03 405.833 449.392 409.902 447.546 416.683L436.112 459.661C435.932 460.336 436.308 461.032 436.97 461.256C440.656 462.501 452.763 465.988 469.173 464.545C469.999 464.472 470.682 463.873 470.847 463.06C471.837 458.167 475.217 441.47 475.913 438.039C478.565 424.967 481.536 410.867 467.141 402.647C460.633 405.581 454.545 407.353 448.03 405.833Z" fill="url(#paint75_linear_9_59)"/>
<path d="M469.878 362.472C469.878 362.472 484.025 373.784 487.78 389.535C491.535 405.286 467.758 407.416 467.758 407.416C467.758 407.416 464.458 403.868 460.645 405.228C456.832 406.587 460.229 398.935 464.719 398.87C469.209 398.805 467.196 402.394 473.493 399.397C479.627 396.478 483.287 387.739 467.254 374.899C466.324 374.155 465.576 373.198 465.116 372.1C461.903 364.438 464.24 359.332 469.878 362.472Z" fill="url(#paint76_linear_9_59)"/>
<path d="M498.745 382.363L498.41 382.128C501.493 377.753 501.888 371.439 499.443 365.648C497.5 361.049 494.025 356.844 488.505 352.414C486.448 350.763 484.267 349.196 482.158 347.681C479.619 345.857 476.993 343.971 474.559 341.921C472.37 340.076 470.067 337.787 469.584 334.792C469.343 333.299 469.569 331.709 469.787 330.171C470.128 327.765 470.45 325.492 469.039 323.751L469.357 323.494C470.88 325.373 470.53 327.842 470.192 330.229C469.978 331.736 469.757 333.296 469.988 334.727C470.45 337.59 472.691 339.812 474.823 341.608C477.244 343.648 479.864 345.53 482.396 347.349C484.51 348.868 486.696 350.437 488.761 352.095C494.336 356.569 497.85 360.826 499.82 365.489C502.32 371.408 501.907 377.874 498.745 382.363Z" fill="#BDD0FB"/>
<path d="M490.558 385.003L490.174 384.864C492.271 379.063 491.657 371.935 488.489 365.306C485.348 358.737 480.215 353.38 476.093 349.447L476.375 349.152C480.522 353.108 485.689 358.5 488.858 365.131C492.073 371.857 492.693 379.1 490.558 385.003Z" fill="#BDD0FB"/>
<path d="M414.498 318.766C428.372 318.766 439.62 307.518 439.62 293.644C439.62 279.769 428.372 268.521 414.498 268.521C400.623 268.521 389.375 279.769 389.375 293.644C389.375 307.518 400.623 318.766 414.498 318.766Z" fill="white"/>
<path d="M393.352 293.644C393.352 281.984 402.838 272.499 414.497 272.499C426.157 272.499 435.642 281.984 435.642 293.644C435.642 305.303 426.157 314.789 414.497 314.789C402.838 314.789 393.352 305.303 393.352 293.644ZM394.081 293.644C394.081 304.901 403.24 314.06 414.498 314.06C425.755 314.06 434.914 304.901 434.914 293.644C434.914 282.386 425.755 273.228 414.498 273.228C403.24 273.228 394.081 282.386 394.081 293.644Z" fill="url(#paint77_linear_9_59)"/>
<path d="M406.662 321.568H422.953V314.489C422.953 314.314 422.811 314.173 422.636 314.173H407.181C406.895 314.173 406.662 314.405 406.662 314.692V321.568Z" fill="url(#paint78_linear_9_59)"/>
<path d="M412.971 359.55H416.795C416.947 359.55 417.07 359.427 417.07 359.275V319.402C417.07 319.25 416.947 319.126 416.795 319.126H412.971C412.819 319.126 412.696 319.249 412.696 319.402V359.275C412.696 359.427 412.819 359.55 412.971 359.55Z" fill="url(#paint79_linear_9_59)"/>
<path d="M405.97 321.876H423.531C423.628 321.876 423.707 321.797 423.707 321.7V318.943C423.707 318.845 423.628 318.766 423.531 318.766H405.97C405.872 318.766 405.793 318.845 405.793 318.943V321.7C405.793 321.797 405.872 321.876 405.97 321.876Z" fill="url(#paint80_linear_9_59)"/>
<path d="M399.182 284.39H403.644C405.462 284.39 406.785 284.743 407.615 285.449C408.444 286.154 408.859 287.276 408.859 288.815C408.859 289.828 408.64 290.675 408.201 291.357C407.763 292.039 407.164 292.452 406.407 292.595V292.715C407.396 292.962 408.109 293.425 408.548 294.102C408.986 294.78 409.206 295.681 409.206 296.805C409.206 298.392 408.781 299.634 407.932 300.531C407.083 301.429 405.92 301.877 404.445 301.877H399.182L399.182 284.39ZM402.244 291.423H403.74C404.425 291.423 404.908 291.239 405.187 290.873C405.466 290.506 405.605 289.96 405.605 289.234C405.605 288.509 405.446 287.988 405.127 287.673C404.808 287.358 404.306 287.201 403.62 287.201H402.244V291.423ZM402.244 294.138V299.03H403.883C404.561 299.03 405.065 298.823 405.396 298.408C405.727 297.994 405.893 297.352 405.893 296.483C405.893 294.92 405.206 294.138 403.835 294.138L402.244 294.138Z" fill="url(#paint81_linear_9_59)"/>
<path d="M412.184 301.877V284.389H415.246V301.877H412.184Z" fill="url(#paint82_linear_9_59)"/>
<path d="M430.066 292.965C430.066 295.853 429.478 298.06 428.302 299.586C427.126 301.113 425.433 301.877 423.224 301.877H418.942V284.389H423.619C425.653 284.389 427.235 285.141 428.368 286.644C429.5 288.148 430.066 290.255 430.066 292.965ZM426.729 293.061C426.729 289.154 425.653 287.2 423.5 287.2H422.196V299.03H423.248C424.437 299.03 425.314 298.533 425.88 297.54C426.446 296.548 426.729 295.055 426.729 293.061Z" fill="url(#paint83_linear_9_59)"/>
<path d="M409.753 345.674C409.576 347.116 409.651 348.643 409.719 349.154C409.775 349.573 409.896 350.048 410.274 350.237C411.155 350.677 413.03 349.441 413.777 349.014C414.051 348.857 414.339 348.671 414.449 348.375C414.562 348.07 414.457 347.732 414.352 347.425C413.974 346.315 413.589 345.191 412.939 344.216C412.54 343.619 411.497 342.436 410.709 343.006C410.001 343.519 409.849 344.892 409.753 345.674Z" fill="url(#paint84_linear_9_59)"/>
<defs>
<linearGradient id="paint0_linear_9_59" x1="563.7" y1="601.278" x2="174.542" y2="181.234" gradientUnits="userSpaceOnUse">
<stop stop-color="#DAE3FE"/>
<stop offset="1" stop-color="#E9EFFD"/>
</linearGradient>
<linearGradient id="paint1_linear_9_59" x1="520.78" y1="94.0236" x2="506.373" y2="113.233" gradientUnits="userSpaceOnUse">
<stop stop-color="#4F52FF"/>
<stop offset="1" stop-color="#4042E2"/>
</linearGradient>
<linearGradient id="paint2_linear_9_59" x1="450.004" y1="106.576" x2="456.798" y2="273.04" gradientUnits="userSpaceOnUse">
<stop stop-color="#4F52FF"/>
<stop offset="1" stop-color="#4042E2"/>
</linearGradient>
<linearGradient id="paint3_linear_9_59" x1="506.251" y1="99.0688" x2="480.318" y2="190.313" gradientUnits="userSpaceOnUse">
<stop stop-color="#4F52FF"/>
<stop offset="1" stop-color="#4042E2"/>
</linearGradient>
<linearGradient id="paint4_linear_9_59" x1="478.419" y1="157.147" x2="430.396" y2="243.588" gradientUnits="userSpaceOnUse">
<stop stop-color="#4F52FF"/>
<stop offset="1" stop-color="#4042E2"/>
</linearGradient>
<linearGradient id="paint5_linear_9_59" x1="427.141" y1="387.887" x2="489.039" y2="387.887" gradientUnits="userSpaceOnUse">
<stop stop-color="#DAE3FE"/>
<stop offset="1" stop-color="#E9EFFD"/>
</linearGradient>
<linearGradient id="paint6_linear_9_59" x1="-13.556" y1="102.199" x2="95.3019" y2="291.74" gradientUnits="userSpaceOnUse">
<stop stop-color="#4F52FF"/>
<stop offset="1" stop-color="#4042E2"/>
</linearGradient>
<linearGradient id="paint7_linear_9_59" x1="46.8458" y1="387.887" x2="108.744" y2="387.887" gradientUnits="userSpaceOnUse">
<stop stop-color="#DAE3FE"/>
<stop offset="1" stop-color="#E9EFFD"/>
</linearGradient>
<linearGradient id="paint8_linear_9_59" x1="123.001" y1="23.2357" x2="105.713" y2="112.559" gradientUnits="userSpaceOnUse">
<stop stop-color="#4F52FF"/>
<stop offset="1" stop-color="#4042E2"/>
</linearGradient>
<linearGradient id="paint9_linear_9_59" x1="288.116" y1="120.435" x2="323.653" y2="-76.4597" gradientUnits="userSpaceOnUse">
<stop stop-color="#4F52FF"/>
<stop offset="1" stop-color="#4042E2"/>
</linearGradient>
<linearGradient id="paint10_linear_9_59" x1="279.885" y1="33.442" x2="242.427" y2="287.964" gradientUnits="userSpaceOnUse">
<stop stop-color="#4F52FF"/>
<stop offset="1" stop-color="#4042E2"/>
</linearGradient>
<linearGradient id="paint11_linear_9_59" x1="195.232" y1="472.993" x2="87.8464" y2="620.648" gradientUnits="userSpaceOnUse">
<stop stop-color="#09005D"/>
<stop offset="1" stop-color="#1A0F91"/>
</linearGradient>
<linearGradient id="paint12_linear_9_59" x1="273.503" y1="374.756" x2="124.223" y2="579.171" gradientUnits="userSpaceOnUse">
<stop stop-color="#4F52FF"/>
<stop offset="1" stop-color="#4042E2"/>
</linearGradient>
<linearGradient id="paint13_linear_9_59" x1="262.953" y1="371.983" x2="113.609" y2="576.484" gradientUnits="userSpaceOnUse">
<stop stop-color="#4F52FF"/>
<stop offset="1" stop-color="#4042E2"/>
</linearGradient>
<linearGradient id="paint14_linear_9_59" x1="173.568" y1="418.16" x2="178.753" y2="523.152" gradientUnits="userSpaceOnUse">
<stop stop-color="#09005D"/>
<stop offset="1" stop-color="#1A0F91"/>
</linearGradient>
<linearGradient id="paint15_linear_9_59" x1="259.911" y1="546.421" x2="486.751" y2="488.814" gradientUnits="userSpaceOnUse">
<stop stop-color="#4F52FF"/>
<stop offset="1" stop-color="#4042E2"/>
</linearGradient>
<linearGradient id="paint16_linear_9_59" x1="401.318" y1="495.689" x2="393.952" y2="569.29" gradientUnits="userSpaceOnUse">
<stop stop-color="#09005D"/>
<stop offset="1" stop-color="#1A0F91"/>
</linearGradient>
<linearGradient id="paint17_linear_9_59" x1="228.645" y1="416.154" x2="395.775" y2="500.359" gradientUnits="userSpaceOnUse">
<stop stop-color="#4F52FF"/>
<stop offset="1" stop-color="#4042E2"/>
</linearGradient>
<linearGradient id="paint18_linear_9_59" x1="230.425" y1="420.19" x2="209.796" y2="518.588" gradientUnits="userSpaceOnUse">
<stop stop-color="#09005D"/>
<stop offset="1" stop-color="#1A0F91"/>
</linearGradient>
<linearGradient id="paint19_linear_9_59" x1="167.992" y1="380.243" x2="167.768" y2="426.684" gradientUnits="userSpaceOnUse">
<stop stop-color="#09005D"/>
<stop offset="1" stop-color="#1A0F91"/>
</linearGradient>
<linearGradient id="paint20_linear_9_59" x1="170.023" y1="378.633" x2="225.092" y2="445.228" gradientUnits="userSpaceOnUse">
<stop stop-color="#4F52FF"/>
<stop offset="1" stop-color="#4042E2"/>
</linearGradient>
<linearGradient id="paint21_linear_9_59" x1="181.219" y1="422.828" x2="168.625" y2="469.146" gradientUnits="userSpaceOnUse">
<stop stop-color="#4F52FF"/>
<stop offset="1" stop-color="#4042E2"/>
</linearGradient>
<linearGradient id="paint22_linear_9_59" x1="272.496" y1="653.819" x2="209.106" y2="533.761" gradientUnits="userSpaceOnUse">
<stop stop-color="#09005D"/>
<stop offset="1" stop-color="#1A0F91"/>
</linearGradient>
<linearGradient id="paint23_linear_9_59" x1="255.233" y1="424.809" x2="236.991" y2="430.281" gradientUnits="userSpaceOnUse">
<stop stop-color="#4F52FF"/>
<stop offset="1" stop-color="#4042E2"/>
</linearGradient>
<linearGradient id="paint24_linear_9_59" x1="174.731" y1="434.973" x2="173.738" y2="348.553" gradientUnits="userSpaceOnUse">
<stop stop-color="#4F52FF"/>
<stop offset="1" stop-color="#4042E2"/>
</linearGradient>
<linearGradient id="paint25_linear_9_59" x1="232.974" y1="335.035" x2="212.91" y2="369.614" gradientUnits="userSpaceOnUse">
<stop stop-color="#4F52FF"/>
<stop offset="1" stop-color="#4042E2"/>
</linearGradient>
<linearGradient id="paint26_linear_9_59" x1="285.005" y1="32.5286" x2="249.468" y2="214.057" gradientUnits="userSpaceOnUse">
<stop stop-color="#09005D"/>
<stop offset="1" stop-color="#1A0F91"/>
</linearGradient>
<linearGradient id="paint27_linear_9_59" x1="288.942" y1="349.156" x2="263.497" y2="353.947" gradientUnits="userSpaceOnUse">
<stop stop-color="#4F52FF"/>
<stop offset="1" stop-color="#4042E2"/>
</linearGradient>
<linearGradient id="paint28_linear_9_59" x1="233.119" y1="334.913" x2="282.043" y2="251.511" gradientUnits="userSpaceOnUse">
<stop stop-color="#4F52FF"/>
<stop offset="1" stop-color="#4042E2"/>
</linearGradient>
<linearGradient id="paint29_linear_9_59" x1="119.151" y1="334.093" x2="50.8305" y2="359.211" gradientUnits="userSpaceOnUse">
<stop stop-color="#FEBBBA"/>
<stop offset="1" stop-color="#FF928E"/>
</linearGradient>
<linearGradient id="paint30_linear_9_59" x1="123.881" y1="346.959" x2="55.5606" y2="372.077" gradientUnits="userSpaceOnUse">
<stop stop-color="#FEBBBA"/>
<stop offset="1" stop-color="#FF928E"/>
</linearGradient>
<linearGradient id="paint31_linear_9_59" x1="157.102" y1="293.699" x2="133.196" y2="310.347" gradientUnits="userSpaceOnUse">
<stop stop-color="#E1473D"/>
<stop offset="1" stop-color="#E9605A"/>
</linearGradient>
<linearGradient id="paint32_linear_9_59" x1="93.2235" y1="299.806" x2="139.868" y2="299.806" gradientUnits="userSpaceOnUse">
<stop stop-color="#FF928E"/>
<stop offset="1" stop-color="#FE7062"/>
</linearGradient>
<linearGradient id="paint33_linear_9_59" x1="93.9507" y1="442.211" x2="119.913" y2="307.412" gradientUnits="userSpaceOnUse">
<stop stop-color="#FF928E"/>
<stop offset="1" stop-color="#FE7062"/>
</linearGradient>
<linearGradient id="paint34_linear_9_59" x1="113.527" y1="399.291" x2="117.012" y2="333.338" gradientUnits="userSpaceOnUse">
<stop stop-color="#E1473D"/>
<stop offset="1" stop-color="#E9605A"/>
</linearGradient>
<linearGradient id="paint35_linear_9_59" x1="97.2814" y1="427.806" x2="123.324" y2="292.59" gradientUnits="userSpaceOnUse">
<stop stop-color="#FF928E"/>
<stop offset="1" stop-color="#FE7062"/>
</linearGradient>
<linearGradient id="paint36_linear_9_59" x1="100.884" y1="299.243" x2="111.94" y2="299.243" gradientUnits="userSpaceOnUse">
<stop stop-color="#E1473D"/>
<stop offset="1" stop-color="#E9605A"/>
</linearGradient>
<linearGradient id="paint37_linear_9_59" x1="115.226" y1="299.243" x2="118.603" y2="299.243" gradientUnits="userSpaceOnUse">
<stop stop-color="#E1473D"/>
<stop offset="1" stop-color="#E9605A"/>
</linearGradient>
<linearGradient id="paint38_linear_9_59" x1="122.679" y1="299.243" x2="134.949" y2="299.243" gradientUnits="userSpaceOnUse">
<stop stop-color="#E1473D"/>
<stop offset="1" stop-color="#E9605A"/>
</linearGradient>
<linearGradient id="paint39_linear_9_59" x1="117.584" y1="350.724" x2="114.974" y2="362.15" gradientUnits="userSpaceOnUse">
<stop stop-color="#FEBBBA"/>
<stop offset="1" stop-color="#FF928E"/>
</linearGradient>
<linearGradient id="paint40_linear_9_59" x1="21.4988" y1="527.581" x2="79.9379" y2="508.312" gradientUnits="userSpaceOnUse">
<stop stop-color="#09005D"/>
<stop offset="1" stop-color="#1A0F91"/>
</linearGradient>
<linearGradient id="paint41_linear_9_59" x1="38.6585" y1="500.345" x2="35.1976" y2="530.549" gradientUnits="userSpaceOnUse">
<stop stop-color="#FEBBBA"/>
<stop offset="1" stop-color="#FF928E"/>
</linearGradient>
<linearGradient id="paint42_linear_9_59" x1="63.1241" y1="525.161" x2="117.442" y2="507.251" gradientUnits="userSpaceOnUse">
<stop stop-color="#09005D"/>
<stop offset="1" stop-color="#1A0F91"/>
</linearGradient>
<linearGradient id="paint43_linear_9_59" x1="66.8503" y1="503.575" x2="63.3894" y2="533.78" gradientUnits="userSpaceOnUse">
<stop stop-color="#FEBBBA"/>
<stop offset="1" stop-color="#FF928E"/>
</linearGradient>
<linearGradient id="paint44_linear_9_59" x1="55.6063" y1="394.762" x2="33.1007" y2="588.469" gradientUnits="userSpaceOnUse">
<stop stop-color="#09005D"/>
<stop offset="1" stop-color="#1A0F91"/>
</linearGradient>
<linearGradient id="paint45_linear_9_59" x1="19.2431" y1="346.814" x2="31.379" y2="311.972" gradientUnits="userSpaceOnUse">
<stop stop-color="#4F52FF"/>
<stop offset="1" stop-color="#4042E2"/>
</linearGradient>
<linearGradient id="paint46_linear_9_59" x1="195.625" y1="196.036" x2="162.009" y2="232.534" gradientUnits="userSpaceOnUse">
<stop stop-color="#FF928E"/>
<stop offset="1" stop-color="#FE7062"/>
</linearGradient>
<linearGradient id="paint47_linear_9_59" x1="9.22386" y1="400.812" x2="39.8664" y2="400.812" gradientUnits="userSpaceOnUse">
<stop stop-color="#FEBBBA"/>
<stop offset="1" stop-color="#FF928E"/>
</linearGradient>
<linearGradient id="paint48_linear_9_59" x1="46.3043" y1="306.907" x2="33.0899" y2="364.013" gradientUnits="userSpaceOnUse">
<stop stop-color="#FEBBBA"/>
<stop offset="1" stop-color="#FF928E"/>
</linearGradient>
<linearGradient id="paint49_linear_9_59" x1="47.9465" y1="298.969" x2="37.2158" y2="336.335" gradientUnits="userSpaceOnUse">
<stop stop-color="#FEBBBA"/>
<stop offset="1" stop-color="#FF928E"/>
</linearGradient>
<linearGradient id="paint50_linear_9_59" x1="33.9157" y1="312.353" x2="60.048" y2="302.289" gradientUnits="userSpaceOnUse">
<stop stop-color="#09005D"/>
<stop offset="1" stop-color="#1A0F91"/>
</linearGradient>
<linearGradient id="paint51_linear_9_59" x1="25.0818" y1="333.947" x2="35.5561" y2="309.512" gradientUnits="userSpaceOnUse">
<stop stop-color="#FEBBBA"/>
<stop offset="1" stop-color="#FF928E"/>
</linearGradient>
<linearGradient id="paint52_linear_9_59" x1="76.5586" y1="129.639" x2="110.584" y2="90.146" gradientUnits="userSpaceOnUse">
<stop stop-color="#FF928E"/>
<stop offset="1" stop-color="#FE7062"/>
</linearGradient>
<linearGradient id="paint53_linear_9_59" x1="129.81" y1="61.3409" x2="29.1969" y2="213.339" gradientUnits="userSpaceOnUse">
<stop stop-color="#FF928E"/>
<stop offset="1" stop-color="#FE7062"/>
</linearGradient>
<linearGradient id="paint54_linear_9_59" x1="130.991" y1="22.2888" x2="123.734" y2="48.3293" gradientUnits="userSpaceOnUse">
<stop stop-color="#FF928E"/>
<stop offset="1" stop-color="#FE7062"/>
</linearGradient>
<linearGradient id="paint55_linear_9_59" x1="123.05" y1="129.406" x2="182.282" y2="60.6548" gradientUnits="userSpaceOnUse">
<stop stop-color="#FF928E"/>
<stop offset="1" stop-color="#FE7062"/>
</linearGradient>
<linearGradient id="paint56_linear_9_59" x1="215.752" y1="10.5101" x2="40.6018" y2="275.112" gradientUnits="userSpaceOnUse">
<stop stop-color="#FF928E"/>
<stop offset="1" stop-color="#FE7062"/>
</linearGradient>
<linearGradient id="paint57_linear_9_59" x1="195.95" y1="8.52741" x2="189.12" y2="40.5444" gradientUnits="userSpaceOnUse">
<stop stop-color="#FF928E"/>
<stop offset="1" stop-color="#FE7062"/>
</linearGradient>
<linearGradient id="paint58_linear_9_59" x1="151.754" y1="230.072" x2="212.703" y2="159.328" gradientUnits="userSpaceOnUse">
<stop stop-color="#FF928E"/>
<stop offset="1" stop-color="#FE7062"/>
</linearGradient>
<linearGradient id="paint59_linear_9_59" x1="247.143" y1="107.729" x2="66.9154" y2="380.001" gradientUnits="userSpaceOnUse">
<stop stop-color="#FF928E"/>
<stop offset="1" stop-color="#FE7062"/>
</linearGradient>
<linearGradient id="paint60_linear_9_59" x1="235.76" y1="103.223" x2="212.28" y2="168.111" gradientUnits="userSpaceOnUse">
<stop stop-color="#FF928E"/>
<stop offset="1" stop-color="#FE7062"/>
</linearGradient>
<linearGradient id="paint61_linear_9_59" x1="226.668" y1="148.882" x2="271.325" y2="97.048" gradientUnits="userSpaceOnUse">
<stop stop-color="#FF928E"/>
<stop offset="1" stop-color="#FE7062"/>
</linearGradient>
<linearGradient id="paint62_linear_9_59" x1="296.559" y1="59.2424" x2="164.507" y2="258.734" gradientUnits="userSpaceOnUse">
<stop stop-color="#FF928E"/>
<stop offset="1" stop-color="#FE7062"/>
</linearGradient>
<linearGradient id="paint63_linear_9_59" x1="288.432" y1="60.0145" x2="272.637" y2="98.8619" gradientUnits="userSpaceOnUse">
<stop stop-color="#FF928E"/>
<stop offset="1" stop-color="#FE7062"/>
</linearGradient>
<linearGradient id="paint64_linear_9_59" x1="450.543" y1="415.727" x2="498.859" y2="291.691" gradientUnits="userSpaceOnUse">
<stop stop-color="#09005D"/>
<stop offset="1" stop-color="#1A0F91"/>
</linearGradient>
<linearGradient id="paint65_linear_9_59" x1="442.107" y1="348.284" x2="390.026" y2="397.377" gradientUnits="userSpaceOnUse">
<stop stop-color="#A22B25"/>
<stop offset="1" stop-color="#C0423C"/>
</linearGradient>
<linearGradient id="paint66_linear_9_59" x1="581.918" y1="265.679" x2="548.302" y2="297.375" gradientUnits="userSpaceOnUse">
<stop stop-color="#FF928E"/>
<stop offset="1" stop-color="#FE7062"/>
</linearGradient>
<linearGradient id="paint67_linear_9_59" x1="452.857" y1="375.036" x2="461.395" y2="313.136" gradientUnits="userSpaceOnUse">
<stop stop-color="#A22B25"/>
<stop offset="1" stop-color="#C0423C"/>
</linearGradient>
<linearGradient id="paint68_linear_9_59" x1="-1416.38" y1="1494.86" x2="-1453.06" y2="1517.66" gradientUnits="userSpaceOnUse">
<stop stop-color="#A22B25"/>
<stop offset="1" stop-color="#C0423C"/>
</linearGradient>
<linearGradient id="paint69_linear_9_59" x1="426.447" y1="405.361" x2="474.763" y2="281.326" gradientUnits="userSpaceOnUse">
<stop stop-color="#09005D"/>
<stop offset="1" stop-color="#1A0F91"/>
</linearGradient>
<linearGradient id="paint70_linear_9_59" x1="-1412.52" y1="1501.05" x2="-1449.2" y2="1523.85" gradientUnits="userSpaceOnUse">
<stop stop-color="#A22B25"/>
<stop offset="1" stop-color="#C0423C"/>
</linearGradient>
<linearGradient id="paint71_linear_9_59" x1="488.046" y1="487.673" x2="569.156" y2="479.136" gradientUnits="userSpaceOnUse">
<stop stop-color="#A22B25"/>
<stop offset="1" stop-color="#C0423C"/>
</linearGradient>
<linearGradient id="paint72_linear_9_59" x1="481.063" y1="522.682" x2="465.675" y2="522.827" gradientUnits="userSpaceOnUse">
<stop stop-color="#09005D"/>
<stop offset="1" stop-color="#1A0F91"/>
</linearGradient>
<linearGradient id="paint73_linear_9_59" x1="538.046" y1="403.826" x2="506.456" y2="438.831" gradientUnits="userSpaceOnUse">
<stop stop-color="#A22B25"/>
<stop offset="1" stop-color="#C0423C"/>
</linearGradient>
<linearGradient id="paint74_linear_9_59" x1="466.823" y1="525.596" x2="448.479" y2="525.768" gradientUnits="userSpaceOnUse">
<stop stop-color="#09005D"/>
<stop offset="1" stop-color="#1A0F91"/>
</linearGradient>
<linearGradient id="paint75_linear_9_59" x1="587.276" y1="322.841" x2="531.345" y2="371.78" gradientUnits="userSpaceOnUse">
<stop stop-color="#4F52FF"/>
<stop offset="1" stop-color="#4042E2"/>
</linearGradient>
<linearGradient id="paint76_linear_9_59" x1="468.777" y1="388.088" x2="392.517" y2="279.51" gradientUnits="userSpaceOnUse">
<stop stop-color="#A22B25"/>
<stop offset="1" stop-color="#C0423C"/>
</linearGradient>
<linearGradient id="paint77_linear_9_59" x1="455.621" y1="347.608" x2="398.052" y2="272.063" gradientUnits="userSpaceOnUse">
<stop stop-color="#FF928E"/>
<stop offset="1" stop-color="#FE7062"/>
</linearGradient>
<linearGradient id="paint78_linear_9_59" x1="419.539" y1="309.634" x2="461.286" y2="235.273" gradientUnits="userSpaceOnUse">
<stop stop-color="#FF928E"/>
<stop offset="1" stop-color="#FE7062"/>
</linearGradient>
<linearGradient id="paint79_linear_9_59" x1="426.994" y1="402.217" x2="404.022" y2="282.948" gradientUnits="userSpaceOnUse">
<stop stop-color="#FF928E"/>
<stop offset="1" stop-color="#FE7062"/>
</linearGradient>
<linearGradient id="paint80_linear_9_59" x1="461.548" y1="275.137" x2="448.883" y2="287.365" gradientUnits="userSpaceOnUse">
<stop stop-color="#FF928E"/>
<stop offset="1" stop-color="#FE7062"/>
</linearGradient>
<linearGradient id="paint81_linear_9_59" x1="399.182" y1="293.133" x2="409.206" y2="293.133" gradientUnits="userSpaceOnUse">
<stop stop-color="#E1473D"/>
<stop offset="1" stop-color="#E9605A"/>
</linearGradient>
<linearGradient id="paint82_linear_9_59" x1="412.184" y1="293.133" x2="415.246" y2="293.133" gradientUnits="userSpaceOnUse">
<stop stop-color="#E1473D"/>
<stop offset="1" stop-color="#E9605A"/>
</linearGradient>
<linearGradient id="paint83_linear_9_59" x1="418.942" y1="293.133" x2="430.066" y2="293.133" gradientUnits="userSpaceOnUse">
<stop stop-color="#E1473D"/>
<stop offset="1" stop-color="#E9605A"/>
</linearGradient>
<linearGradient id="paint84_linear_9_59" x1="409.643" y1="346.593" x2="414.497" y2="346.593" gradientUnits="userSpaceOnUse">
<stop stop-color="#A22B25"/>
<stop offset="1" stop-color="#C0423C"/>
</linearGradient>
</defs>
</svg>
