<svg width="506" height="476" viewBox="0 0 506 476" fill="none" xmlns="http://www.w3.org/2000/svg">
<path d="M371.363 472.317C445.721 472.317 506 412.038 506 337.68C506 263.321 445.721 203.042 371.363 203.042C297.004 203.042 236.725 263.321 236.725 337.68C236.725 412.038 297.004 472.317 371.363 472.317Z" fill="#FF5336"/>
<path d="M257.109 346.758C257.109 417.757 199.555 475.308 128.556 475.308C57.5578 475.308 0.00305176 417.753 0.00305176 346.758C0.00305176 275.76 57.5578 218.205 128.556 218.205C199.555 218.205 257.109 275.76 257.109 346.758Z" fill="#FF5336"/>
<path d="M469.516 128.329C469.516 188.52 420.723 237.314 360.534 237.314C300.342 237.314 251.552 188.52 251.552 128.329C251.552 68.1399 300.346 19.3463 360.534 19.3463C420.723 19.3463 469.516 68.1399 469.516 128.329Z" fill="#FF5336"/>
<path d="M287.918 128.553C287.918 199.552 230.364 257.106 159.365 257.106C88.3666 257.106 30.8119 199.549 30.8119 128.553C30.8119 57.5547 88.3666 0 159.365 0C230.364 0 287.918 57.5547 287.918 128.553Z" fill="#FF5336"/>
<path d="M53.5837 108.286C53.8055 109.888 54.2892 111.964 54.3015 113.501L23.092 117.238C22.6884 115.753 22.3619 114.213 22.1401 112.617C20.3133 99.3396 26.3112 89.8391 34.9923 88.6438C43.6765 87.4486 51.7569 95.0114 53.5837 108.286Z" fill="#FCC083"/>
<path d="M55.6386 110.328C55.6386 110.328 62.9828 156.303 68.0442 162.584C73.7371 169.654 96.3579 163.015 122.993 150.533L128.852 193.153C109.762 197.272 54.1353 203.075 46.4492 195.155C28.0765 176.219 21.2438 115.725 21.2438 115.725L55.6386 110.328Z" fill="#BDD0FB"/>
<path d="M212.622 12.4053C208.421 10.5786 196.086 8.19111 190.445 8.1449C184.802 8.19111 172.467 10.5786 168.265 12.4053C148.725 20.9047 148.488 37.4074 148.488 63.1119H190.445H232.403C232.403 37.4074 232.166 20.9047 212.622 12.4053Z" fill="black"/>
<path d="M207.151 114.623H192.451H189.324H174.623C174.623 114.623 179.592 142.881 155.93 166.244L189.324 206.588H192.451L225.844 166.244C202.185 142.878 207.151 114.623 207.151 114.623Z" fill="#FCC083"/>
<path d="M207.151 114.623H192.451H189.324H174.623C174.623 114.623 177.032 128.393 170.449 144.65C184.035 139.348 194.863 128.165 206.816 117.898C206.945 115.818 207.151 114.623 207.151 114.623Z" fill="#E8AA63"/>
<path d="M172.975 130.731C172.1 133.975 169.528 131.976 167.886 136.624C165.015 144.748 162.175 160.185 156.035 166.241L189.429 217.016H192.555L225.946 166.241C219.809 160.179 221.242 146.64 218.374 138.513C216.732 133.867 209.887 133.969 209.009 130.731L191.154 143.993L172.975 130.731Z" fill="#F5F2DE"/>
<path d="M233.731 61.2177C232.477 57.98 230.283 59.6527 228.577 61.7876C229.067 36.6653 215.802 23.9055 215.802 23.9055H190.889H165.976C165.976 23.9055 152.622 36.6345 153.047 61.6028C151.365 59.5634 149.264 58.0755 148.044 61.2177C145.78 67.0585 151.103 75.0618 150.083 83.1761C149.393 88.6596 153.721 88.1113 156.46 86.5771C157.489 90.7267 159.023 95.6187 161.485 101.349C166.694 113.465 181.641 124.496 190.815 124.496C199.986 124.496 214.717 113.375 220.142 101.349C222.637 95.822 224.196 91.2319 225.185 86.5124C227.914 88.0989 232.394 88.752 231.694 83.1792C230.675 75.0619 235.998 67.0585 233.731 61.2177Z" fill="#FCC083"/>
<path d="M191.138 143.993L200.91 157.292L216.538 135.278L207.761 128.596L191.138 143.993Z" fill="#ECEDED"/>
<path d="M191.138 143.993L181.37 157.292L165.443 135.857L174.192 128.596L191.138 143.993Z" fill="#ECEDED"/>
<path d="M266.976 156.975C261.866 147.859 230.083 138.679 216.76 135.177C216.35 139.123 215.207 142.977 213.343 146.445C214.052 153.18 213.772 162.199 210.275 172.698C207.743 180.298 198.889 197.287 196.415 203.729C195.442 206.261 190.994 214.44 190.994 214.44C190.994 214.44 186.542 206.264 185.569 203.729C183.095 197.284 174.642 180.295 172.11 172.698C169.571 165.083 168.696 158.256 168.632 152.493C164.34 148.124 161.765 142.379 160.912 136.338C146.035 140.441 119.629 148.734 115.008 156.975C111.61 163.034 127.98 217.847 127.98 217.847H275.584C273.615 194.746 270.371 163.031 266.976 156.975Z" fill="#BDD0FB"/>
<path d="M191.015 215.272L234.418 157.2L223.854 152.117L229.137 138.676L214.542 134.388C214.542 134.388 213.861 148.629 207.157 170.819C202.121 187.485 191.037 213.689 191.018 213.648C191.018 213.648 179.888 187.485 174.851 170.819C168.148 148.629 167.467 134.388 167.467 134.388L152.871 138.676L158.154 152.117L147.591 157.2L190.994 215.272L191.003 215.287L191.015 215.272Z" fill="#787878"/>
<path d="M161.792 23.166C161.792 23.166 189.733 75.5885 233.595 21.1297C233.595 21.1297 195.152 -9.4082 161.792 23.166Z" fill="black"/>
<path d="M161.149 82.4982C159.347 66.9966 157.819 30.7288 181.031 20.609L173.924 17.1742C173.924 17.1742 153.164 21.3731 151.254 53.439L156.823 87.2855H156.873C159.448 87.2855 161.447 85.0581 161.149 82.4982Z" fill="black"/>
<path d="M224.622 87.2856H224.849L230.382 53.6548C228.472 21.5889 207.712 17.39 207.712 17.39L200.608 20.8248C223.799 30.9323 222.293 67.1508 220.494 82.6739C220.207 85.1415 222.139 87.2856 224.622 87.2856Z" fill="black"/>
<path d="M211.014 131.939L190.99 143.161L170.97 131.939V153.953L190.99 145.303L211.014 153.953V131.939Z" fill="black"/>
<path d="M73.6569 36.2925C73.6569 15.711 56.2023 -0.788645 35.2881 0.782458C17.6764 2.10711 3.55492 16.4565 2.49212 34.0836C1.56178 49.4774 10.4185 62.915 23.4278 68.7774C28.1103 70.8876 31.0615 75.6071 31.0615 80.7424V128.861C31.0615 132.678 34.1545 135.771 37.9713 135.771H38.11C41.9268 135.771 45.0197 132.678 45.0197 128.861V80.7424C45.0197 75.5424 48.0849 70.8629 52.8105 68.7065C65.1114 63.0936 73.6569 50.6942 73.6569 36.2925Z" fill="#191A23"/>
<path d="M22.8734 40.5189H27.0877V44.65H13.1603V40.5189H17.5347V32.1735H13.1603V29.0591C15.6556 28.8989 18.9826 27.5311 21.0743 26.1633H22.8703V40.5189H22.8734Z" fill="#F3F3F3"/>
<path d="M40.7809 40.5189H44.9921V44.65H31.0647V40.5189H35.4391V32.1735H31.0647V29.0591C33.56 28.8989 36.887 27.5311 38.9787 26.1633H40.7778V40.5189H40.7809Z" fill="#F3F3F3"/>
<path d="M61.5566 30.7532H52.7831L52.5674 33.5412C52.5674 33.5412 54.0184 32.3336 56.5137 32.3336C60.4291 32.3336 62.9275 34.6934 62.9275 38.6088C62.9275 42.1268 60.0009 44.9702 55.3585 44.9702C49.9921 44.9702 47.201 42.4472 47.201 38.6889H51.9236C51.9236 40.0844 52.8878 41.2643 54.7947 41.2643C56.6739 41.2643 57.6381 40.0844 57.6381 38.5287C57.6381 36.9453 56.6462 35.7623 54.8194 35.7623C53.0234 35.7623 52.5397 36.7543 52.244 37.1054L48.0051 36.517L48.7814 26.1847H61.5535L61.5566 30.7532Z" fill="#F3F3F3"/>
<path d="M471.094 83.1637H340.541V147.333H471.094V83.1637Z" fill="#999345"/>
<path d="M347.405 103.671V127.771C352.109 128.264 360.044 128.837 361.699 141.698H449.08C450.823 128.026 459.689 127.965 464.212 127.694V103.671C459.597 103.397 450.447 103.265 448.96 88.7981H364.45C362.731 105.504 350.787 103.853 347.405 103.671Z" fill="#EDE7C4"/>
<path d="M377.576 115.255C377.576 119.598 374.046 123.132 369.687 123.132C365.346 123.132 361.813 119.601 361.813 115.255C361.813 110.899 365.346 107.368 369.687 107.368C374.046 107.365 377.576 110.899 377.576 115.255Z" fill="#999345"/>
<path d="M446.387 115.255C446.387 119.598 442.86 123.132 438.516 123.132C434.157 123.132 430.627 119.601 430.627 115.255C430.627 110.899 434.157 107.368 438.516 107.368C442.86 107.365 446.387 110.899 446.387 115.255Z" fill="#999345"/>
<path d="M425.747 115.254C425.747 126.178 416.878 135.029 405.961 135.029C395.037 135.029 386.171 126.178 386.171 115.254C386.171 104.318 395.037 95.4678 405.961 95.4678C416.878 95.4678 425.747 104.318 425.747 115.254Z" fill="#999345"/>
<path d="M415.477 120.159C415.424 114.879 409.71 114.142 409.71 114.142C408.915 114.13 408.191 114.084 407.532 114.013V105.883C410.609 106.73 409.587 109.719 409.587 109.719H414.497C414.497 109.719 416.506 102.094 407.532 101.01V100.338C407.532 99.4171 406.771 98.6686 405.816 98.6686C404.87 98.6686 404.094 99.4171 404.094 100.338V100.917C396.198 101.386 396.081 106.546 396.183 109.475C396.285 112.331 396.854 115.929 404.094 117.405V125.528C401.127 124.441 401.854 120.525 401.854 120.525H396.201C395.977 123.144 396.143 128.07 404.094 128.784V130.152C404.094 131.073 404.87 131.822 405.816 131.822C406.771 131.822 407.532 131.073 407.532 130.152V128.834C413.166 128.526 415.548 126.191 415.477 120.159ZM401.238 109.722C401.238 109.722 401.078 106.669 404.094 105.865V113.181C401.053 111.881 401.238 109.722 401.238 109.722ZM407.532 125.559V118.098C412.221 119.678 411.306 124.438 407.532 125.559Z" fill="#EDE7C4"/>
<path d="M471.094 83.1637H340.541V147.333H471.094V83.1637Z" fill="#B6C09A"/>
<path d="M461.8 95.5138H331.247V159.686H461.8V95.5138Z" fill="#999345"/>
<path d="M338.111 116.024V140.124C342.815 140.617 350.747 141.19 352.405 154.054H439.786C441.529 140.376 450.395 140.318 454.918 140.047V116.024C450.303 115.753 441.154 115.618 439.666 101.151H355.153C353.437 117.854 341.493 116.203 338.111 116.024Z" fill="#EDE7C4"/>
<path d="M368.282 127.605C368.282 131.948 364.752 135.482 360.393 135.482C356.052 135.482 352.519 131.951 352.519 127.605C352.519 123.249 356.049 119.715 360.393 119.715C364.752 119.718 368.282 123.249 368.282 127.605Z" fill="#999345"/>
<path d="M437.093 127.605C437.093 131.948 433.563 135.482 429.222 135.482C424.863 135.482 421.333 131.951 421.333 127.605C421.333 123.249 424.863 119.715 429.222 119.715C433.563 119.718 437.093 123.249 437.093 127.605Z" fill="#999345"/>
<path d="M416.453 127.604C416.453 138.531 407.584 147.379 396.664 147.379C385.743 147.379 376.877 138.531 376.877 127.604C376.877 116.665 385.743 107.818 396.664 107.818C407.584 107.821 416.453 116.668 416.453 127.604Z" fill="#999345"/>
<path d="M406.183 132.512C406.13 127.232 400.416 126.496 400.416 126.496C399.621 126.483 398.897 126.437 398.238 126.366V118.237C401.318 119.084 400.296 122.072 400.296 122.072H405.206C405.206 122.072 407.215 114.447 398.241 113.363V112.691C398.241 111.77 397.48 111.022 396.525 111.022C395.579 111.022 394.803 111.77 394.803 112.691V113.271C386.907 113.739 386.79 118.899 386.892 121.828C386.994 124.684 387.563 128.282 394.803 129.758V137.881C391.836 136.794 392.563 132.879 392.563 132.879H386.91C386.686 135.497 386.852 140.423 394.803 141.138V142.509C394.803 143.43 395.579 144.175 396.525 144.175C397.48 144.175 398.241 143.43 398.241 142.509V141.187C403.872 140.879 406.253 138.544 406.183 132.512ZM391.944 122.072C391.944 122.072 391.787 119.019 394.8 118.215V125.531C391.759 124.234 391.944 122.072 391.944 122.072ZM398.238 137.912V130.451C402.926 132.031 402.011 136.791 398.238 137.912Z" fill="#EDE7C4"/>
<path d="M461.8 95.5138H331.247V159.683H461.8V95.5138Z" fill="#BBC5A2"/>
<path d="M451.162 108.582H320.61V172.753H451.162V108.582Z" fill="#999345"/>
<path d="M327.476 129.089V153.189C332.18 153.685 340.116 154.258 341.77 167.116H429.151C430.895 153.441 439.761 153.383 444.283 153.109V129.086C439.672 128.815 430.516 128.683 429.031 114.213H344.518C342.802 130.922 330.859 129.271 327.476 129.089Z" fill="#EDE7C4"/>
<path d="M357.648 140.672C357.648 145.016 354.117 148.55 349.758 148.55C345.415 148.55 341.884 145.019 341.884 140.672C341.884 136.316 345.415 132.786 349.758 132.786C354.114 132.786 357.648 136.316 357.648 140.672Z" fill="#999345"/>
<path d="M426.456 140.672C426.456 145.016 422.929 148.55 418.585 148.55C414.226 148.55 410.696 145.019 410.696 140.672C410.696 136.316 414.226 132.786 418.585 132.786C422.929 132.786 426.456 136.316 426.456 140.672Z" fill="#999345"/>
<path d="M405.816 140.672C405.816 151.599 396.95 160.447 386.029 160.447C375.108 160.447 366.243 151.599 366.243 140.672C366.243 129.736 375.108 120.886 386.029 120.886C396.95 120.886 405.816 129.736 405.816 140.672Z" fill="#999345"/>
<path d="M395.548 145.577C395.496 140.297 389.782 139.563 389.782 139.563C388.987 139.548 388.263 139.502 387.604 139.434V131.304C390.681 132.148 389.658 135.136 389.658 135.136H394.569C394.569 135.136 396.577 127.512 387.604 126.428V125.756C387.604 124.835 386.84 124.089 385.888 124.089C384.942 124.089 384.166 124.835 384.166 125.756V126.335C376.27 126.803 376.153 131.964 376.255 134.893C376.356 137.749 376.926 141.347 384.166 142.823V150.946C381.196 149.859 381.926 145.946 381.926 145.946H376.273C376.045 148.562 376.215 153.488 384.166 154.202V155.573C384.166 156.494 384.942 157.24 385.888 157.24C386.84 157.24 387.604 156.494 387.604 155.573V154.255C393.238 153.947 395.616 151.608 395.548 145.577ZM381.31 135.14C381.31 135.14 381.153 132.09 384.166 131.283V138.599C381.125 137.299 381.31 135.14 381.31 135.14ZM387.604 150.98V143.516C392.292 145.096 391.377 149.856 387.604 150.98Z" fill="#EDE7C4"/>
<path d="M451.162 108.582H320.61V172.753H451.162V108.582Z" fill="#CFD6BD"/>
<path d="M440.531 120.18H309.979V184.349H440.531V120.18Z" fill="#999345"/>
<path d="M316.845 140.691V164.79C321.549 165.283 329.485 165.856 331.139 178.718H418.52C420.264 165.043 429.13 164.984 433.652 164.713V140.691C429.04 140.417 419.885 140.284 418.4 125.814H333.887C332.171 142.517 320.228 140.869 316.845 140.691Z" fill="#EDE7C4"/>
<path d="M347.016 152.267C347.016 156.614 343.486 160.148 339.127 160.148C334.786 160.148 331.253 156.617 331.253 152.267C331.253 147.915 334.783 144.381 339.127 144.381C343.483 144.384 347.016 147.915 347.016 152.267Z" fill="#999345"/>
<path d="M415.828 152.267C415.828 156.614 412.3 160.148 407.957 160.148C403.598 160.148 400.067 156.617 400.067 152.267C400.067 147.915 403.598 144.381 407.957 144.381C412.297 144.384 415.828 147.915 415.828 152.267Z" fill="#999345"/>
<path d="M395.188 152.268C395.188 163.194 386.319 172.045 375.398 172.045C364.477 172.045 355.611 163.194 355.611 152.268C355.611 141.331 364.477 132.484 375.398 132.484C386.319 132.484 395.188 141.331 395.188 152.268Z" fill="#999345"/>
<path d="M384.917 157.178C384.865 151.898 379.15 151.161 379.15 151.161C378.355 151.149 377.631 151.103 376.972 151.032V142.902C380.05 143.749 379.027 146.738 379.027 146.738H383.937C383.937 146.738 385.946 139.113 376.972 138.029V137.354C376.972 136.433 376.211 135.688 375.256 135.688C374.311 135.688 373.534 136.433 373.534 137.354V137.933C365.639 138.399 365.522 143.558 365.623 146.488C365.725 149.347 366.295 152.945 373.534 154.421V162.541C370.564 161.457 371.295 157.541 371.295 157.541H365.642C365.417 160.16 365.583 165.086 373.534 165.8V167.168C373.534 168.089 374.311 168.835 375.256 168.835C376.211 168.835 376.972 168.089 376.972 167.168V165.85C382.607 165.545 384.985 163.21 384.917 157.178ZM370.675 146.738C370.675 146.738 370.518 143.685 373.531 142.881V150.197C370.494 148.894 370.675 146.738 370.675 146.738ZM376.969 162.578V155.114C381.658 156.697 380.743 161.457 376.969 162.578Z" fill="#EDE7C4"/>
<path d="M340.541 95.5138H331.247V108.579H320.613V120.177H309.982V153.337C318.589 159.421 329.085 163.007 340.427 163.007C369.604 163.007 393.253 139.354 393.253 110.181C393.253 100.295 390.502 91.0716 385.78 83.1637H340.544L340.541 95.5138Z" fill="#B6C09A"/>
<path d="M334.953 29.5215H325.995V50.0167H334.953V29.5215Z" fill="#6F7274"/>
<path d="M330.474 12.0513C322.673 12.0513 316.349 18.3757 316.349 26.1758C316.349 33.9728 322.673 40.2973 330.474 40.2973C338.274 40.2973 344.598 33.9728 344.598 26.1758C344.598 18.3726 338.274 12.0513 330.474 12.0513ZM330.474 36.274C324.895 36.274 320.375 31.7516 320.375 26.1758C320.375 20.5968 324.898 16.0745 330.474 16.0745C336.053 16.0745 340.575 20.5968 340.575 26.1758C340.575 31.7516 336.053 36.274 330.474 36.274Z" fill="#191A23"/>
<path d="M337.538 22.8025H323.413V31.7578H337.538V22.8025Z" fill="#636364"/>
<path d="M294.54 52.7691L290.953 56.3619L299.175 64.5693L302.761 60.9764L294.54 52.7691Z" fill="#6F7274"/>
<path d="M292.884 49.0316L287.229 54.6993L290.823 58.2851L296.478 52.6173L292.884 49.0316Z" fill="#44657E"/>
<path d="M378.704 92.7322C378.704 119.367 357.112 140.959 330.474 140.959C303.839 140.959 282.247 119.367 282.247 92.7322C282.247 66.0943 303.839 44.5055 330.474 44.5055C357.112 44.5055 378.704 66.0974 378.704 92.7322Z" fill="#191A23"/>
<path d="M371.125 92.7321C371.125 115.183 352.925 133.38 330.474 133.38C308.022 133.38 289.825 115.183 289.825 92.7321C289.825 70.2807 308.025 52.0836 330.474 52.0836C352.922 52.0836 371.125 70.2807 371.125 92.7321Z" fill="#EDE7C4"/>
<path d="M354.244 73.7861L316.353 101.518L319.452 105.479L354.244 73.7861Z" fill="black"/>
<path d="M330.982 56.3594H329.969V59.7881H330.982V56.3594Z" fill="#656E78"/>
<path d="M330.982 126.033H329.969V129.462H330.982V126.033Z" fill="#656E78"/>
<path d="M309.959 62.6734L309.129 63.2549L311.097 66.0659L311.928 65.4844L309.959 62.6734Z" fill="#656E78"/>
<path d="M349.907 119.722L349.079 120.305L351.055 123.111L351.884 122.528L349.907 119.722Z" fill="#656E78"/>
<path d="M296.332 79.9408L295.987 80.8936L299.213 82.0638L299.559 81.111L296.332 79.9408Z" fill="#656E78"/>
<path d="M361.778 103.73L361.431 104.682L364.655 105.857L365.002 104.904L361.778 103.73Z" fill="#656E78"/>
<path d="M298.379 101.021L295.064 101.909L295.326 102.888L298.641 102L298.379 101.021Z" fill="#656E78"/>
<path d="M365.684 82.9882L362.369 83.876L362.631 84.8551L365.946 83.9673L365.684 82.9882Z" fill="#656E78"/>
<path d="M308.735 117.939L306.53 120.568L307.304 121.217L309.509 118.588L308.735 117.939Z" fill="#656E78"/>
<path d="M353.521 64.5612L351.316 67.1907L352.09 67.8399L354.295 65.2105L353.521 64.5612Z" fill="#656E78"/>
<path d="M321.444 124.753L320.558 128.068L321.537 128.33L322.423 125.015L321.444 124.753Z" fill="#656E78"/>
<path d="M339.428 57.5225L338.54 60.8373L339.519 61.0996L340.407 57.7848L339.428 57.5225Z" fill="#656E78"/>
<path d="M335.726 125.617L336.724 125.439L337.322 128.821L336.324 128.997L335.726 125.617Z" fill="#656E78"/>
<path d="M323.629 57.0001L324.627 56.8245L325.221 60.2038L324.223 60.3794L323.629 57.0001Z" fill="#656E78"/>
<path d="M349.892 119.696L349.062 120.278L351.032 123.088L351.862 122.507L349.892 119.696Z" fill="#656E78"/>
<path d="M309.897 62.6436L309.067 63.2244L311.033 66.0367L311.864 65.456L309.897 62.6436Z" fill="#656E78"/>
<path d="M359.363 109.018L358.857 109.896L361.829 111.611L362.336 110.733L359.363 109.018Z" fill="#656E78"/>
<path d="M299.044 74.226L298.536 75.103L301.506 76.8231L302.014 75.9461L299.044 74.226Z" fill="#656E78"/>
<path d="M363.556 95.2732L363.468 96.283L366.887 96.5798L366.975 95.5701L363.556 95.2732Z" fill="#656E78"/>
<path d="M294.086 89.1827L293.999 90.1925L297.418 90.4873L297.505 89.4775L294.086 89.1827Z" fill="#656E78"/>
<path d="M364.678 79.9533L361.451 81.1235L361.797 82.0764L365.023 80.9061L364.678 79.9533Z" fill="#656E78"/>
<path d="M299.204 103.786L295.977 104.957L296.323 105.909L299.549 104.739L299.204 103.786Z" fill="#656E78"/>
<path d="M355.945 66.7458L353.516 69.1697L354.231 69.8871L356.661 67.4632L355.945 66.7458Z" fill="#656E78"/>
<path d="M306.754 115.991L304.327 118.417L305.044 119.134L307.471 116.708L306.754 115.991Z" fill="#656E78"/>
<path d="M342.519 58.4061L341.347 61.6316L342.299 61.9777L343.471 58.7522L342.519 58.4061Z" fill="#656E78"/>
<path d="M318.708 123.885L317.534 127.11L318.487 127.457L319.661 124.232L318.708 123.885Z" fill="#656E78"/>
<path d="M328.093 59.8682L327.085 59.9575L326.783 56.5411L327.794 56.4518L328.093 59.8682Z" fill="#656E78"/>
<path d="M334.165 129.277L333.157 129.369L332.858 125.95L333.866 125.861L334.165 129.277Z" fill="#656E78"/>
<path d="M312.675 60.9666L311.797 61.4725L313.51 64.4461L314.388 63.9402L312.675 60.9666Z" fill="#656E78"/>
<path d="M347.496 121.308L346.619 121.817L348.339 124.783L349.215 124.275L347.496 121.308Z" fill="#656E78"/>
<path d="M300.799 71.5849L300.218 72.4154L303.03 74.3825L303.611 73.5521L300.799 71.5849Z" fill="#656E78"/>
<path d="M357.875 111.554L357.294 112.384L360.103 114.35L360.684 113.519L357.875 111.554Z" fill="#656E78"/>
<path d="M294.546 86.1178L294.37 87.116L297.75 87.7114L297.926 86.7133L294.546 86.1178Z" fill="#656E78"/>
<path d="M363.163 98.2091L362.987 99.2072L366.366 99.8026L366.542 98.8045L363.163 98.2091Z" fill="#656E78"/>
<path d="M298.379 101.021L295.064 101.909L295.326 102.888L298.641 102L298.379 101.021Z" fill="#656E78"/>
<path d="M365.684 82.9882L362.369 83.876L362.631 84.8551L365.946 83.9673L365.684 82.9882Z" fill="#656E78"/>
<path d="M304.74 113.828L302.111 116.034L302.763 116.81L305.391 114.604L304.74 113.828Z" fill="#656E78"/>
<path d="M358.128 69.0417L355.497 71.2452L356.148 72.0222L358.779 69.8187L358.128 69.0417Z" fill="#656E78"/>
<path d="M316.005 122.704L314.55 125.812L315.468 126.242L316.923 123.134L316.005 122.704Z" fill="#656E78"/>
<path d="M345.468 59.6146L344.02 62.7258L344.939 63.1535L346.387 60.0423L345.468 59.6146Z" fill="#656E78"/>
<path d="M330.982 126.033H329.969V129.462H330.982V126.033Z" fill="#656E78"/>
<path d="M330.982 56.3594H329.969V59.7881H330.982V56.3594Z" fill="#656E78"/>
<path d="M344.912 122.714L343.994 123.144L345.449 126.251L346.367 125.822L344.912 122.714Z" fill="#656E78"/>
<path d="M315.52 59.5646L314.601 59.9917L316.047 63.104L316.966 62.6769L315.52 59.5646Z" fill="#656E78"/>
<path d="M356.155 113.781L355.503 114.557L358.132 116.763L358.784 115.987L356.155 113.781Z" fill="#656E78"/>
<path d="M302.79 69.0021L302.139 69.7791L304.77 71.9826L305.421 71.2056L302.79 69.0021Z" fill="#656E78"/>
<path d="M362.641 100.989L362.379 101.968L365.694 102.856L365.956 101.877L362.641 100.989Z" fill="#656E78"/>
<path d="M295.338 82.9562L295.076 83.9353L298.391 84.8231L298.653 83.844L295.338 82.9562Z" fill="#656E78"/>
<path d="M366.403 86.0058L363.024 86.6012L363.199 87.5993L366.579 87.0039L366.403 86.0058Z" fill="#656E78"/>
<path d="M297.79 98.1086L294.41 98.704L294.586 99.7021L297.965 99.1067L297.79 98.1086Z" fill="#656E78"/>
<path d="M360.138 71.4794L357.328 73.4447L357.909 74.2752L360.719 72.3099L360.138 71.4794Z" fill="#656E78"/>
<path d="M303.076 111.434L300.264 113.401L300.844 114.232L303.656 112.265L303.076 111.434Z" fill="#656E78"/>
<path d="M348.321 61.0443L346.609 64.0153L347.487 64.5212L349.199 61.5503L348.321 61.0443Z" fill="#656E78"/>
<path d="M313.468 121.312L311.747 124.281L312.624 124.789L314.345 121.82L313.468 121.312Z" fill="#656E78"/>
<path d="M333.866 59.9575L332.858 59.8682L333.157 56.4518L334.165 56.5411L333.866 59.9575Z" fill="#656E78"/>
<path d="M327.794 129.369L326.783 129.277L327.085 125.861L328.093 125.95L327.794 129.369Z" fill="#656E78"/>
<path d="M318.475 58.3846L317.522 58.7307L318.694 61.9562L319.647 61.6101L318.475 58.3846Z" fill="#656E78"/>
<path d="M342.326 123.887L341.373 124.233L342.546 127.459L343.498 127.113L342.326 123.887Z" fill="#656E78"/>
<path d="M304.976 66.7014L304.259 67.4181L306.686 69.8447L307.402 69.128L304.976 66.7014Z" fill="#656E78"/>
<path d="M354.251 115.95L353.534 116.666L355.958 119.095L356.675 118.379L354.251 115.95Z" fill="#656E78"/>
<path d="M296.332 79.9408L295.987 80.8936L299.213 82.0638L299.559 81.111L296.332 79.9408Z" fill="#656E78"/>
<path d="M361.778 103.73L361.431 104.682L364.655 105.857L365.002 104.904L361.778 103.73Z" fill="#656E78"/>
<path d="M297.411 95.2531L293.993 95.5541L294.082 96.5636L297.5 96.2626L297.411 95.2531Z" fill="#656E78"/>
<path d="M366.823 89.2661L363.404 89.566L363.492 90.5757L366.911 90.2758L366.823 89.2661Z" fill="#656E78"/>
<path d="M301.548 109.036L298.573 110.747L299.078 111.625L302.053 109.914L301.548 109.036Z" fill="#656E78"/>
<path d="M361.879 74.1381L358.909 75.8582L359.417 76.7352L362.387 75.0152L361.879 74.1381Z" fill="#656E78"/>
<path d="M311.034 119.796L309.065 122.606L309.895 123.188L311.864 120.378L311.034 119.796Z" fill="#656E78"/>
<path d="M350.975 62.6738L349.006 65.4845L349.834 66.0641L351.803 63.2535L350.975 62.6738Z" fill="#656E78"/>
<path d="M324.17 125.425L323.569 128.804L324.567 128.981L325.167 125.603L324.17 125.425Z" fill="#656E78"/>
<path d="M336.324 56.8245L337.322 57.0001L336.724 60.3794L335.726 60.2038L336.324 56.8245Z" fill="#656E78"/>
<path d="M339.539 124.722L338.56 124.984L339.446 128.299L340.425 128.037L339.539 124.722Z" fill="#656E78"/>
<path d="M321.521 57.4169L320.542 57.6792L321.43 60.9939L322.409 60.7316L321.521 57.4169Z" fill="#656E78"/>
<path d="M352.167 117.982L351.392 118.631L353.594 121.263L354.369 120.614L352.167 117.982Z" fill="#656E78"/>
<path d="M307.38 64.6066L306.605 65.2551L308.808 67.887L309.582 67.2385L307.38 64.6066Z" fill="#656E78"/>
<path d="M360.704 106.45L360.277 107.366L363.388 108.815L363.815 107.899L360.704 106.45Z" fill="#656E78"/>
<path d="M297.599 76.9987L297.171 77.9175L300.282 79.3667L300.71 78.448L297.599 76.9987Z" fill="#656E78"/>
<path d="M367.028 92.405H363.596V93.4155H367.028V92.405Z" fill="#656E78"/>
<path d="M297.354 92.405H293.923V93.4155H297.354V92.405Z" fill="#656E78"/>
<path d="M363.421 77.0353L360.31 78.4839L360.738 79.4028L363.849 77.9542L363.421 77.0353Z" fill="#656E78"/>
<path d="M300.226 106.426L297.119 107.883L297.548 108.797L300.655 107.341L300.226 106.426Z" fill="#656E78"/>
<path d="M336.157 93.9396C336.157 97.0787 333.613 99.6233 330.474 99.6233C327.334 99.6233 324.79 97.0787 324.79 93.9396C324.79 90.7974 327.334 88.2528 330.474 88.2528C333.613 88.2528 336.157 90.7974 336.157 93.9396Z" fill="black"/>
<path d="M154.236 270.978C154.258 267.688 152.415 265.008 150.117 264.993H150.034C147.736 264.974 145.857 267.627 145.832 270.92L145.724 289.228C145.453 289.148 145.148 289.037 144.877 288.963L145.007 262.651C145.034 258.85 142.903 255.754 140.247 255.732H140.152C137.496 255.714 135.321 258.779 135.294 262.584L135.176 286.381L135.01 286.335C134.677 286.255 134.363 286.181 134.03 286.098L134.055 283.051C134.055 282.983 134.04 282.916 134.037 282.845L134.197 254.981C134.225 251.179 132.093 248.08 129.437 248.062H129.339C126.683 248.043 124.508 251.108 124.481 254.913L124.339 279.813L124.317 283.683C123.969 283.55 123.661 283.399 123.319 283.264L123.328 282.182L123.516 255.92C123.544 252.119 121.412 249.02 118.757 249.001H118.658C116.003 248.983 113.828 252.048 113.8 255.853L113.44 306.06C113.184 306.427 112.928 306.747 112.67 307C112.679 306.451 112.682 305.961 112.694 305.388C113.086 287.342 108.446 283.267 105.325 282.758C102.701 282.33 102.701 284.179 102.701 284.179L102.953 316.355C103.141 317.039 103.326 317.705 103.517 318.386C106.761 323.727 117.303 334.485 117.303 334.485L117.371 350.415L147.345 350.411L147.351 335.877C148.121 334.309 153.91 317.169 153.925 315.419C153.925 315.419 154.134 290.518 154.128 290.457L154.236 270.978Z" fill="#FCC083"/>
<path opacity="0.75" d="M147.298 408.45L147.295 336.253L117.281 334.503L117.297 408.45H147.298Z" fill="#EBD5B8"/>
<path d="M149.347 339.774H115.433V408.45H149.347V339.774Z" fill="black"/>
<path d="M166.592 275.294H90.1752V310.835H166.592V275.294Z" fill="#999345"/>
<path d="M96.1238 286.652V300.001C98.73 300.275 103.123 300.589 104.041 307.714H152.437C153.401 300.139 158.312 300.108 160.819 299.957V286.652C158.262 286.501 153.195 286.427 152.372 278.412H105.563C104.614 287.666 97.9968 286.751 96.1238 286.652Z" fill="white"/>
<path d="M112.836 293.066C112.836 295.472 110.88 297.428 108.467 297.428C106.065 297.428 104.105 295.472 104.105 293.066C104.105 290.654 106.062 288.698 108.467 288.698C110.88 288.698 112.836 290.654 112.836 293.066Z" fill="#999345"/>
<path d="M150.946 293.066C150.946 295.472 148.993 297.428 146.587 297.428C144.172 297.428 142.215 295.472 142.215 293.066C142.215 290.654 144.172 288.698 146.587 288.698C148.993 288.698 150.946 290.654 150.946 293.066Z" fill="#999345"/>
<path d="M139.514 293.066C139.514 299.12 134.6 304.021 128.553 304.021C122.503 304.021 117.593 299.12 117.593 293.066C117.593 287.01 122.503 282.109 128.553 282.109C134.604 282.112 139.514 287.013 139.514 293.066Z" fill="#999345"/>
<path d="M133.827 295.787C133.8 292.863 130.633 292.454 130.633 292.454C130.192 292.447 129.792 292.42 129.425 292.383V287.882C131.129 288.35 130.565 290.004 130.565 290.004H133.285C133.285 290.004 134.397 285.781 129.428 285.18V284.81C129.428 284.299 129.006 283.886 128.476 283.886C127.953 283.886 127.521 284.299 127.521 284.81V285.131C123.15 285.39 123.085 288.248 123.141 289.872C123.196 291.452 123.513 293.445 127.521 294.265V298.763C125.876 298.162 126.283 295.993 126.283 295.993H123.15C123.024 297.444 123.119 300.17 127.521 300.568V301.326C127.521 301.834 127.953 302.25 128.476 302.25C129.003 302.25 129.428 301.834 129.428 301.326V300.595C132.549 300.42 133.864 299.126 133.827 295.787ZM125.941 290.004C125.941 290.004 125.852 288.313 127.521 287.87V291.921C125.839 291.2 125.941 290.004 125.941 290.004ZM129.428 298.778V294.644C132.022 295.519 131.517 298.156 129.428 298.778Z" fill="white"/>
<path d="M112.707 306.954C112.694 306.966 112.682 306.981 112.67 306.994C112.679 306.445 112.682 305.955 112.694 305.382C112.703 305.065 112.703 304.76 112.707 304.452V303.836H112.716C112.814 287.099 108.354 283.245 105.329 282.752C102.704 282.324 102.704 284.173 102.704 284.173L102.956 316.349C103.144 317.033 103.329 317.699 103.52 318.379C105.341 321.377 109.45 326.069 112.713 329.617V306.954H112.707Z" fill="#FCC083"/>
<path d="M166.593 275.294H154.212L154.236 270.981C154.258 267.691 152.416 265.011 150.118 264.996H150.034C147.736 264.977 145.857 267.629 145.832 270.923L145.808 275.297H144.945L145.007 262.657C145.035 258.856 142.903 255.76 140.247 255.738H140.149C137.493 255.72 135.318 258.785 135.291 262.59L135.226 275.3H134.074L134.191 254.984C134.219 251.182 132.087 248.083 129.431 248.065H129.333C126.677 248.046 124.502 251.111 124.475 254.916L124.358 275.3H123.369L123.507 255.923C123.535 252.122 121.403 249.023 118.748 249.004H118.649C115.994 248.983 113.819 252.051 113.791 255.855L113.653 275.303H90.1661V310.844H102.898L102.941 316.358C103.129 317.042 103.314 317.708 103.505 318.388C103.721 318.746 103.973 319.128 104.251 319.528C104.343 319.664 104.451 319.809 104.549 319.947C104.744 320.221 104.941 320.496 105.156 320.782C105.283 320.955 105.421 321.13 105.557 321.306C105.763 321.577 105.976 321.851 106.198 322.128C106.345 322.316 106.496 322.504 106.65 322.695C106.878 322.979 107.109 323.259 107.347 323.545C107.501 323.727 107.655 323.912 107.809 324.1C108.064 324.405 108.326 324.71 108.588 325.018C108.733 325.187 108.875 325.351 109.019 325.52C109.309 325.856 109.602 326.188 109.894 326.518C110.014 326.654 110.128 326.786 110.249 326.919C110.615 327.334 110.979 327.744 111.342 328.142C111.382 328.185 111.422 328.228 111.459 328.274C114.561 331.706 117.285 334.488 117.285 334.488V334.518L117.269 334.515L117.272 339.786H115.421L115.424 408.459H117.285H147.287H149.335L149.332 339.78H147.345V335.88C148.115 334.312 153.904 317.172 153.919 315.422C153.919 315.422 153.934 313.543 153.959 310.844H166.593V275.294Z" fill="#CFD6BD"/>
<path d="M99.6606 293.078C99.6822 289.791 97.84 287.108 95.545 287.096L95.4618 287.093C93.1637 287.077 91.2814 289.73 91.2599 293.02L91.1551 311.331C90.884 311.248 90.576 311.14 90.3049 311.066L90.4343 284.755C90.462 280.953 88.3302 277.854 85.6747 277.836L85.5761 277.833C82.9207 277.814 80.7458 280.882 80.7181 284.687L80.601 308.484L80.4346 308.438C80.105 308.358 79.7877 308.284 79.455 308.201L79.4797 305.154C79.4797 305.083 79.4643 305.016 79.4612 304.948L79.6214 277.084C79.6491 273.282 77.5173 270.183 74.8619 270.165L74.7633 270.162C72.1078 270.143 69.9329 273.212 69.9052 277.016L69.7635 301.914L69.7419 305.786C69.3938 305.65 69.0857 305.502 68.7438 305.364L68.7499 304.286L68.9379 278.024C68.9656 274.222 66.8338 271.123 64.1783 271.104L64.0828 271.101C61.4274 271.083 59.2525 274.151 59.2248 277.956L58.8643 328.16C58.6086 328.527 58.3529 328.847 58.0942 329.103C58.1034 328.552 58.1065 328.062 58.1188 327.489C58.507 309.443 53.8676 305.367 50.75 304.859C48.1254 304.43 48.1254 306.282 48.1254 306.282L48.3749 338.459C48.5659 339.143 48.7476 339.802 48.9386 340.489C52.1856 345.831 62.7243 356.585 62.7243 356.585L62.7952 372.515L92.7693 372.509L92.7755 357.977C93.5457 356.406 99.3372 339.269 99.3495 337.519C99.3495 337.519 99.5621 312.619 99.5528 312.554L99.6606 293.078Z" fill="#FCC083"/>
<path opacity="0.75" d="M92.723 430.55L92.7199 358.356L62.7087 356.606L62.7211 430.55H92.723Z" fill="#EBD5B8"/>
<path d="M94.7714 361.871H60.8572V430.55H94.7714V361.871Z" fill="#191A23"/>
<path d="M112.017 297.397H35.5995V332.938H112.017V297.397Z" fill="#999345"/>
<path d="M41.5511 308.753V322.101C44.1573 322.375 48.5503 322.692 49.4683 329.815H97.8644C98.8317 322.243 103.739 322.209 106.247 322.058V308.753C103.69 308.602 98.6222 308.531 97.7997 300.515H50.9901C50.0382 309.769 43.4241 308.854 41.5511 308.753Z" fill="white"/>
<path d="M58.2603 315.169C58.2603 317.575 56.3042 319.531 53.889 319.531C51.483 319.531 49.5269 317.575 49.5269 315.169C49.5269 312.757 51.483 310.801 53.889 310.801C56.3042 310.801 58.2603 312.757 58.2603 315.169Z" fill="#999345"/>
<path d="M96.3705 315.169C96.3705 317.575 94.4174 319.531 92.0115 319.531C89.5994 319.531 87.6432 317.575 87.6432 315.169C87.6432 312.757 89.5994 310.801 92.0115 310.801C94.4174 310.801 96.3705 312.757 96.3705 315.169Z" fill="#999345"/>
<path d="M84.9413 315.17C84.9413 321.22 80.0277 326.121 73.9805 326.121C67.9302 326.121 63.0198 321.22 63.0198 315.17C63.0198 309.11 67.9302 304.209 73.9805 304.209C80.0277 304.212 84.9413 309.11 84.9413 315.17Z" fill="#999345"/>
<path d="M79.2515 317.886C79.2238 314.963 76.057 314.556 76.057 314.556C75.6164 314.547 75.216 314.522 74.8494 314.485V309.982C76.556 310.45 75.9892 312.104 75.9892 312.104H78.7094C78.7094 312.104 79.8214 307.884 74.8494 307.283V306.91C74.8494 306.402 74.4273 305.986 73.9005 305.986C73.3768 305.986 72.9456 306.402 72.9456 306.91V307.234C68.5742 307.492 68.5095 310.351 68.565 311.972C68.6204 313.555 68.9377 315.548 72.9456 316.365V320.865C71.3005 320.265 71.7072 318.096 71.7072 318.096H68.5773C68.451 319.547 68.5434 322.273 72.9456 322.667V323.425C72.9456 323.937 73.3768 324.349 73.9005 324.349C74.4273 324.349 74.8494 323.937 74.8494 323.425V322.698C77.9731 322.523 79.2916 321.229 79.2515 317.886ZM71.3652 312.104C71.3652 312.104 71.279 310.413 72.9456 309.969V314.02C71.2636 313.302 71.3652 312.104 71.3652 312.104ZM74.8524 320.881V316.747C77.4463 317.618 76.9411 320.255 74.8524 320.881Z" fill="white"/>
<path d="M58.1311 329.053C58.1188 329.069 58.1065 329.084 58.0942 329.097C58.1034 328.545 58.1065 328.055 58.1188 327.482C58.125 327.165 58.125 326.863 58.1311 326.552V325.936H58.1373C58.2359 309.202 53.7752 305.345 50.75 304.852C48.1254 304.424 48.1254 306.275 48.1254 306.275L48.3749 338.452C48.5659 339.136 48.7476 339.795 48.9386 340.482C50.7593 343.48 54.8688 348.168 58.1311 351.717V329.053Z" fill="#FCC083"/>
<path d="M203.575 293.078C203.6 289.791 201.754 287.108 199.459 287.096L199.376 287.093C197.078 287.077 195.199 289.73 195.174 293.02L195.07 311.331C194.798 311.248 194.49 311.14 194.219 311.066L194.352 284.755C194.38 280.953 192.248 277.854 189.592 277.836L189.494 277.833C186.838 277.814 184.663 280.882 184.636 284.687L184.519 308.484L184.352 308.438C184.023 308.358 183.705 308.284 183.373 308.201L183.397 305.154C183.4 305.083 183.382 305.016 183.379 304.948L183.539 277.084C183.567 273.282 181.435 270.183 178.779 270.165L178.681 270.162C176.025 270.143 173.85 273.212 173.823 277.016L173.678 301.914L173.656 305.786C173.308 305.65 173 305.502 172.658 305.364L172.664 304.286L172.852 278.024C172.88 274.222 170.748 271.123 168.093 271.104L167.994 271.101C165.339 271.083 163.164 274.151 163.136 277.956L162.776 328.16C162.52 328.527 162.264 328.847 162.002 329.103C162.012 328.552 162.015 328.062 162.027 327.489C162.418 309.443 157.776 305.367 154.658 304.859C152.034 304.43 152.034 306.282 152.034 306.282L152.283 338.459C152.474 339.143 152.656 339.802 152.847 340.489C156.094 345.831 166.633 356.585 166.633 356.585L166.7 372.515L196.675 372.509L196.681 357.977C197.451 356.406 203.242 339.269 203.255 337.519C203.255 337.519 203.467 312.619 203.458 312.554L203.575 293.078Z" fill="#FCC083"/>
<path opacity="0.75" d="M196.638 430.55L196.635 358.356L166.624 356.606L166.636 430.55H196.638Z" fill="#EBD5B8"/>
<path d="M198.686 361.871H164.772V430.55H198.686V361.871Z" fill="#191A23"/>
<path d="M215.931 297.397H139.514V332.938H215.931V297.397Z" fill="#999345"/>
<path d="M145.463 308.753V322.101C148.069 322.375 152.465 322.692 153.38 329.815H201.776C202.741 322.243 207.651 322.209 210.159 322.058V308.753C207.602 308.602 202.534 308.531 201.712 300.515H154.902C153.953 309.769 147.339 308.854 145.463 308.753Z" fill="white"/>
<path d="M162.175 315.169C162.175 317.575 160.219 319.531 157.807 319.531C155.401 319.531 153.445 317.575 153.445 315.169C153.445 312.757 155.401 310.801 157.807 310.801C160.219 310.801 162.175 312.757 162.175 315.169Z" fill="#999345"/>
<path d="M200.285 315.169C200.285 317.575 198.332 319.531 195.926 319.531C193.511 319.531 191.555 317.575 191.555 315.169C191.555 312.757 193.511 310.801 195.926 310.801C198.332 310.801 200.285 312.757 200.285 315.169Z" fill="#999345"/>
<path d="M188.856 315.17C188.856 321.22 183.946 326.121 177.895 326.121C171.845 326.121 166.935 321.22 166.935 315.17C166.935 309.11 171.845 304.209 177.895 304.209C183.943 304.212 188.856 309.11 188.856 315.17Z" fill="#999345"/>
<path d="M183.166 317.886C183.139 314.963 179.972 314.556 179.972 314.556C179.531 314.547 179.131 314.522 178.764 314.485V309.982C180.471 310.45 179.904 312.104 179.904 312.104H182.624C182.624 312.104 183.736 307.884 178.767 307.283V306.91C178.767 306.402 178.345 305.986 177.815 305.986C177.292 305.986 176.863 306.402 176.863 306.91V307.234C172.489 307.492 172.424 310.351 172.483 311.972C172.538 313.555 172.856 315.548 176.863 316.365V320.865C175.218 320.265 175.622 318.096 175.622 318.096H172.489C172.363 319.547 172.458 322.273 176.86 322.667V323.425C176.86 323.937 177.289 324.349 177.812 324.349C178.339 324.349 178.764 323.937 178.764 323.425V322.698C181.888 322.523 183.206 321.229 183.166 317.886ZM175.28 312.104C175.28 312.104 175.194 310.413 176.863 309.969V314.02C175.178 313.302 175.28 312.104 175.28 312.104ZM178.767 320.881V316.747C181.361 317.618 180.856 320.255 178.767 320.881Z" fill="white"/>
<path d="M162.046 329.053C162.033 329.069 162.021 329.084 162.009 329.097C162.018 328.545 162.021 328.055 162.033 327.482C162.039 327.165 162.043 326.863 162.046 326.552V325.936H162.055C162.153 309.202 157.693 305.345 154.668 304.852C152.043 304.424 152.043 306.275 152.043 306.275L152.293 338.452C152.483 339.136 152.665 339.795 152.856 340.482C154.677 343.48 158.786 348.168 162.049 351.717L162.046 329.053Z" fill="#FCC083"/>
<path d="M407.944 224.84C381.707 224.84 359.434 242.877 358.134 266.21H357.953L350.553 398.703H465.16L457.761 266.21C456.458 242.877 434.182 224.84 407.944 224.84Z" fill="black"/>
<path d="M482.745 436.822C482.745 436.822 475.394 384.474 469.634 372.801C467.702 368.886 463.377 366.837 457.97 365.528L423.656 358.187C419.328 342.87 421.074 330.36 421.074 330.36H394.821C394.821 330.36 396.58 342.987 392.178 358.4L357.435 365.528C352.42 366.745 306.824 396.762 299.76 400.773C296.942 401.513 295.722 400.413 294.764 398.7C292.007 393.765 282.829 361.329 282.287 357.999C282.192 356.77 281.874 355.297 281.711 354.118C280.149 342.781 273.252 336.324 265.837 337.344C258.422 338.367 253.299 346.481 254.861 357.817C255.052 359.182 255.329 360.498 255.674 361.764C255.674 361.764 266.847 412.59 281.363 425.578C290.648 433.883 316.356 422.094 316.356 422.094C324.88 419.1 362.287 400.619 362.287 400.619H451.973L455.447 436.822H482.745Z" fill="#FCC083"/>
<path d="M409.205 330.36H406.681H394.815C394.815 330.36 396.482 343.114 392.172 358.4C392.172 358.4 393.58 359.579 395.711 358.56C406.851 353.224 414.269 345.489 420.754 334.898C420.84 332.045 421.068 330.36 421.068 330.36H409.205Z" fill="#E8AA63"/>
<path d="M451.27 276.261C449.998 272.981 447.777 274.675 446.049 276.834C446.544 251.386 433.107 238.463 433.107 238.463L407.871 230.136L382.635 238.463C382.635 238.463 369.108 251.358 369.539 276.65C367.832 274.586 365.707 273.079 364.471 276.261C362.176 282.179 367.567 290.287 366.535 298.503C365.836 304.061 370.22 303.5 372.995 301.951C374.04 306.149 375.592 311.109 378.084 316.91C383.362 329.18 398.503 340.353 407.797 340.353C417.088 340.353 432.007 329.091 437.503 316.91C440.029 311.312 441.609 306.661 442.611 301.877C445.377 303.482 449.912 304.144 449.203 298.5C448.174 290.287 453.565 282.179 451.27 276.261Z" fill="#FCC083"/>
<path d="M407.945 224.84C381.834 224.84 360.423 245.908 360.22 271.973V273.289H373.35C381.304 258.185 389.689 247.871 407.945 247.871C426.2 247.871 433.514 258.185 441.468 273.289H455.451V272.346C455.451 246.109 434.182 224.84 407.945 224.84Z" fill="black"/>
<path d="M407.729 237.622C407.729 237.622 402.335 276.363 445.097 287.395C445.097 287.395 456.024 239.162 407.729 237.622Z" fill="black"/>
<path d="M407.664 237.622C407.664 237.622 413.059 276.363 370.297 287.395C370.297 287.395 359.37 239.162 407.664 237.622Z" fill="black"/>
<path d="M430.947 382.871C420.119 382.871 410.933 390.511 407.495 401.167C404.057 390.514 394.871 382.871 384.042 382.871C373.155 382.871 363.926 390.591 360.531 401.33H360.565L366.042 436.822H448.978L454.455 401.33C451.064 390.591 441.834 382.871 430.947 382.871Z" fill="#7D97F4"/>
<path d="M449.835 308.093C449.835 310.123 448.189 311.769 446.159 311.769C444.129 311.769 442.484 310.123 442.484 308.093C442.484 306.066 444.129 304.421 446.159 304.421C448.189 304.421 449.835 306.066 449.835 308.093Z" fill="#F6F4E3"/>
<path d="M373.384 308.093C373.384 310.123 371.739 311.769 369.712 311.769C367.682 311.769 366.036 310.123 366.036 308.093C366.036 306.066 367.682 304.421 369.712 304.421C371.739 304.421 373.384 306.066 373.384 308.093Z" fill="#F6F4E3"/>
<path d="M393.074 363.267C393.074 365.297 391.429 366.942 389.399 366.942C387.369 366.942 385.724 365.297 385.724 363.267C385.724 361.24 387.369 359.595 389.399 359.595C391.429 359.595 393.074 361.24 393.074 363.267Z" fill="#FF5336"/>
<path d="M397.686 370.325C397.686 372.352 396.041 373.997 394.011 373.997C391.981 373.997 390.336 372.352 390.336 370.325C390.336 368.294 391.981 366.649 394.011 366.649C396.041 366.646 397.686 368.291 397.686 370.325Z" fill="#FF5336"/>
<path d="M403.515 376.815C403.515 378.842 401.87 380.487 399.84 380.487C397.809 380.487 396.164 378.842 396.164 376.815C396.164 374.785 397.809 373.14 399.84 373.14C401.87 373.14 403.515 374.785 403.515 376.815Z" fill="#FF5336"/>
<path d="M422.67 363.267C422.67 365.297 424.315 366.942 426.342 366.942C428.372 366.942 430.017 365.297 430.017 363.267C430.017 361.24 428.372 359.595 426.342 359.595C424.315 359.595 422.67 361.24 422.67 363.267Z" fill="#FF5336"/>
<path d="M418.055 370.325C418.055 372.352 419.7 373.997 421.73 373.997C423.76 373.997 425.405 372.352 425.405 370.325C425.405 368.294 423.76 366.649 421.73 366.649C419.7 366.646 418.055 368.291 418.055 370.325Z" fill="#FF5336"/>
<path d="M412.285 376.815C412.285 378.842 413.93 380.487 415.96 380.487C417.991 380.487 419.632 378.842 419.632 376.815C419.632 374.785 417.987 373.14 415.96 373.14C413.93 373.14 412.285 374.785 412.285 376.815Z" fill="#FF5336"/>
<path d="M411.503 380.487C411.503 382.517 409.858 384.162 407.828 384.162C405.797 384.162 404.152 382.517 404.152 380.487C404.152 378.46 405.797 376.815 407.828 376.815C409.858 376.815 411.503 378.46 411.503 380.487Z" fill="#FF5336"/>
<path d="M268.878 399.005H269.019C272.882 399.005 276.015 395.872 276.015 392.009V318.906H291.329V302.841H246.568V318.906H261.882V392.009C261.882 395.872 265.015 399.005 268.878 399.005Z" fill="#191A23"/>
<path d="M306.23 309.815H231.667C227.406 309.815 223.953 306.362 223.953 302.101V259.577C223.953 255.316 227.406 251.863 231.667 251.863H306.23C310.49 251.863 313.943 255.316 313.943 259.577V302.101C313.943 306.362 310.49 309.815 306.23 309.815Z" fill="#999345"/>
<path d="M252.507 267.306C256.598 267.306 259.981 270.064 259.981 273.954C259.981 277.888 257.895 279.539 255.458 280.248V280.408C258.252 281.037 260.612 282.848 260.612 287.173C260.612 291.498 257.11 294.373 252.741 294.373H234.492V267.306H252.507ZM243.182 273.249V277.851H249.162C250.305 277.851 251.167 276.906 251.167 275.729V275.334C251.167 274.195 250.261 273.249 249.162 273.249H243.182ZM243.182 283.436V288.076H249.79C250.93 288.076 251.799 287.173 251.799 285.956V285.562C251.799 284.382 250.93 283.439 249.79 283.439L243.182 283.436Z" fill="#F3F3F3"/>
<path d="M274.198 294.373H265.504V267.306H274.198V294.373Z" fill="#F3F3F3"/>
<path d="M292.142 267.306C301.387 267.306 306.341 271.598 306.341 280.839C306.341 290.084 301.387 294.376 292.142 294.376H280.421V267.309H292.142V267.306ZM289.114 273.797V287.882H291.988C295.802 287.882 297.453 285.716 297.453 282.019V279.66C297.453 275.96 295.802 273.797 291.988 273.797H289.114Z" fill="#F3F3F3"/>
<path d="M485.391 206.767C485.391 215.035 478.687 221.735 470.422 221.735C462.154 221.735 455.453 215.032 455.453 206.767C455.453 198.501 462.157 191.801 470.422 191.801C478.687 191.798 485.391 198.498 485.391 206.767Z" fill="#FE8983"/>
<path d="M479.362 176.851C479.362 180.196 476.651 182.907 473.309 182.907C469.963 182.907 467.252 180.196 467.252 176.851C467.252 173.508 469.963 170.797 473.309 170.797C476.651 170.797 479.362 173.508 479.362 176.851Z" fill="#FE8983"/>
<path d="M47.1084 223.799C47.1084 230.94 41.32 236.728 34.1761 236.728C27.0353 236.728 21.2438 230.94 21.2438 223.799C21.2438 216.658 27.0322 210.87 34.1761 210.87C41.32 210.87 47.1084 216.658 47.1084 223.799Z" fill="#FE8983"/>
<path d="M7.22707 262.513C11.2185 262.513 14.4541 259.277 14.4541 255.286C14.4541 251.294 11.2185 248.059 7.22707 248.059C3.23567 248.059 0 251.294 0 255.286C0 259.277 3.23567 262.513 7.22707 262.513Z" fill="#FE8983"/>
<path d="M17.3099 176.136C17.3099 180.914 13.4345 184.789 8.65647 184.789C3.87539 184.789 0 180.914 0 176.136C0 171.355 3.87539 167.483 8.65647 167.483C13.4345 167.483 17.3099 171.358 17.3099 176.136Z" fill="#FE8983"/>
<path d="M290.978 24.817C290.978 31.5081 285.553 36.9331 278.862 36.9331C272.167 36.9331 266.743 31.5081 266.743 24.817C266.743 18.1229 272.167 12.698 278.862 12.698C285.556 12.7011 290.978 18.1229 290.978 24.817Z" fill="#FE8983"/>
<path d="M316.128 13.7304C316.128 17.3285 313.21 20.2459 309.612 20.2459C306.011 20.2459 303.097 17.3285 303.097 13.7304C303.097 10.1323 306.014 7.21497 309.612 7.21497C313.21 7.21189 316.128 10.1323 316.128 13.7304Z" fill="#FE8983"/>
<path d="M271.089 448.236C271.089 456.19 264.638 462.641 256.684 462.641C248.73 462.641 242.282 456.19 242.282 448.236C242.282 440.282 248.73 433.831 256.684 433.831C264.638 433.834 271.089 440.282 271.089 448.236Z" fill="#FE8983"/>
<path d="M223.953 462.906C223.953 467.409 220.303 471.06 215.799 471.06C211.295 471.06 207.645 467.409 207.645 462.906C207.645 458.402 211.295 454.754 215.799 454.754C220.303 454.754 223.953 458.402 223.953 462.906Z" fill="#FE8983"/>
</svg>
